<svg xmlns="http://www.w3.org/2000/svg" width="40" height="37.614" viewBox="0 0 40 37.614"><path d="M-1.359,92.614a24.017,24.017,0,0,1-3.627-.506A29.458,29.458,0,0,1-17.8,84.349,27.819,27.819,0,0,1-25.48,71.572a22.048,22.048,0,0,1-.506-3.626A4.434,4.434,0,0,1-24,63.9l3.711-2.488a3.493,3.493,0,0,1,2.825-.464,3.56,3.56,0,0,1,2.235,1.813l2.994,5.819a3.53,3.53,0,0,1-.97,4.385l-1.644,1.265a19.371,19.371,0,0,0,3.162,4.048A19.063,19.063,0,0,0-7.727,81.4l1.307-1.686a3.519,3.519,0,0,1,4.385-.97l5.819,3.036h0a3.422,3.422,0,0,1,1.771,2.192,3.506,3.506,0,0,1-.422,2.825L2.689,90.547a4.384,4.384,0,0,1-3.753,2.066ZM-19.2,63.138l-3.711,2.488a2.412,2.412,0,0,0-1.054,2.15,20.564,20.564,0,0,0,.422,3.247,27.668,27.668,0,0,0,7.126,11.849A26.974,26.974,0,0,0-4.523,90.084a20.518,20.518,0,0,0,3.247.422h.169a2.374,2.374,0,0,0,2.024-1.1l2.446-3.753h0a1.363,1.363,0,0,0,.169-1.138,1.375,1.375,0,0,0-.717-.885L-3,80.6a1.383,1.383,0,0,0-1.771.379L-6.63,83.336a1.1,1.1,0,0,1-1.35.253,20.647,20.647,0,0,1-5.229-3.879A20.882,20.882,0,0,1-17.172,74.4a1.049,1.049,0,0,1,.3-1.307l2.361-1.855a1.432,1.432,0,0,0,.379-1.771l-2.994-5.819a1.565,1.565,0,0,0-.928-.717.822.822,0,0,0-.337-.042A1.388,1.388,0,0,0-19.2,63.138ZM-5.534,75.747a3.385,3.385,0,0,1-2.994-1.729,3.388,3.388,0,0,1,0-3.458L-.517,56.729A3.435,3.435,0,0,1,2.477,55a3.472,3.472,0,0,1,2.994,1.729L13.525,70.56h0a3.458,3.458,0,0,1-2.994,5.187ZM1.339,57.783-6.715,71.614a1.345,1.345,0,0,0,0,1.349,1.328,1.328,0,0,0,1.181.675H10.532a1.367,1.367,0,0,0,1.223-1.982L3.7,57.783a1.4,1.4,0,0,0-1.181-.675A1.353,1.353,0,0,0,1.339,57.783Zm-.3,12.65a1.476,1.476,0,1,1,1.476,1.476A1.476,1.476,0,0,1,1.043,70.433Zm.422-3.5V61.2a1.054,1.054,0,1,1,2.108,0v5.735a1.054,1.054,0,1,1-2.108,0Z" transform="translate(26 -55)"/></svg>