<svg xmlns="http://www.w3.org/2000/svg" width="26.698" height="24.224" viewBox="0 0 26.698 24.224"><g transform="translate(17.465 0.495) rotate(45)"><path d="M8.357,0a.5.5,0,0,0-.5.5V10A3.429,3.429,0,1,1,1,10V.5a.5.5,0,0,0-1,0V10a4.429,4.429,0,1,0,8.857,0V.5A.5.5,0,0,0,8.357,0Z" transform="translate(0 9.57)" fill="#54595f" stroke="#54595f" stroke-miterlimit="10" stroke-width="0.7"/><path d="M6.179,0A6.186,6.186,0,0,0,0,6.179v9.214a.5.5,0,0,0,1,0V6.179a5.179,5.179,0,1,1,10.357,0v9.214a.5.5,0,0,0,1,0V6.179A6.186,6.186,0,0,0,6.179,0Z" transform="translate(0)" fill="#54595f" stroke="#54595f" stroke-miterlimit="10" stroke-width="0.7"/><path d="M2.643,0A2.646,2.646,0,0,0,0,2.643V10.1a.5.5,0,0,0,1,0V2.643a1.643,1.643,0,0,1,3.286,0V10.1a.5.5,0,0,0,1,0V2.643A2.646,2.646,0,0,0,2.643,0Z" transform="translate(3.571 4.214)" fill="#54595f" stroke="#54595f" stroke-miterlimit="10" stroke-width="0.7"/></g></svg>