<svg xmlns="http://www.w3.org/2000/svg" width="24" height="24" viewBox="0 0 24 24"><path d="M24,1.143V6.466a1.214,1.214,0,0,1-.038.3h0a1.141,1.141,0,0,1-1.111.916H1.141A1.138,1.138,0,0,1,.015,6.662.9.9,0,0,1,0,6.458V1.136a1.132,1.132,0,0,1,1.935-.8,1.141,1.141,0,0,1,.332.8V5.4H21.741V1.136a1.132,1.132,0,0,1,1.935-.8A1.2,1.2,0,0,1,24,1.143Z" transform="translate(0 16.323)" fill="#2b8000"/><path d="M13.451,12.136l-5.569,5.58c-.008.015-.023.023-.03.03a1.311,1.311,0,0,1-.733.371c-.023,0-.045.008-.068.008a.82.82,0,0,1-.136.008h0l-.128-.008c-.023,0-.045-.008-.068-.008a1.288,1.288,0,0,1-.733-.371l-.03-.03L.385,12.136a1.326,1.326,0,1,1,1.874-1.878l3.348,3.354V1.325A1.33,1.33,0,0,1,6.929,0a1.35,1.35,0,0,1,.937.386,1.31,1.31,0,0,1,.385.939V13.613L11.6,10.259a1.33,1.33,0,0,1,1.874,0A1.358,1.358,0,0,1,13.451,12.136Z" transform="translate(5.086)" fill="#2b8000"/></svg>