<svg xmlns="http://www.w3.org/2000/svg" width="24.516" height="22.064" viewBox="0 0 24.516 22.064"><path d="M44.27,31.335l-4.127-4.127a.79.79,0,0,0-1.144,0l-.2.163V23.817A.82.82,0,0,0,37.978,23H20.817a.82.82,0,0,0-.817.817v20.43a.82.82,0,0,0,.817.817H37.978a.82.82,0,0,0,.817-.817V38L44.27,32.52A.838.838,0,0,0,44.27,31.335ZM37.161,43.43H21.634v-18.8H37.161v4.413L30.787,35.38a.9.9,0,0,0-.245.613l.2,3.922a.87.87,0,0,0,.776.776l3.922.2h.041a.807.807,0,0,0,.572-.245l1.062-1.062V43.43ZM35.2,39.262l-2.86-.163-.163-2.86,7.355-7.355,2.983,2.983Zm-1.43-9.316H25.026a.817.817,0,1,1,0-1.634H33.77a.817.817,0,0,1,0,1.634Z" transform="translate(-20 -23)" fill="#2b8000"/></svg>