<svg xmlns="http://www.w3.org/2000/svg" width="24.33" height="24.33" viewBox="0 0 24.33 24.33"><path d="M8.674,0A8.686,8.686,0,0,0,0,8.674v6.982A8.388,8.388,0,0,0,8.251,24.33a1.058,1.058,0,0,0,0-2.116c-3.512,0-6.135-2.835-6.135-6.558V8.674A6.592,6.592,0,0,1,8.674,2.115h6.939a6.592,6.592,0,0,1,6.559,6.559v6.982c0,3.723-2.623,6.558-6.135,6.558a1.058,1.058,0,0,0,0,2.116h0a8.423,8.423,0,0,0,8.293-8.674V8.674A8.686,8.686,0,0,0,15.656,0Zm2.708,5.923L6.22,11.085A1.047,1.047,0,0,0,7.7,12.566l3.385-3.385v14.09a1.047,1.047,0,0,0,1.058,1.058h0A1.048,1.048,0,0,0,13.2,23.272V9.182l3.385,3.385a1.047,1.047,0,0,0,1.481-1.481L12.905,5.923a1.127,1.127,0,0,0-1.523,0Z" fill="#2b8000"/></svg>