<svg xmlns="http://www.w3.org/2000/svg" width="66" height="66" viewBox="0 0 66 66">
  <g id="Icon-_Global_Incidents" data-name="Icon- Global Incidents" transform="translate(-467 -485)">
    <path id="Icon-_Global_Incidents-2" data-name="Icon- Global Incidents" d="M1017.73-9486.575a17.994,17.994,0,0,1-5.717-3.832,17.778,17.778,0,0,1-3.853-5.679,17.651,17.651,0,0,1-1.414-6.959,17.633,17.633,0,0,1,1.414-6.956,17.8,17.8,0,0,1,3.853-5.682,17.992,17.992,0,0,1,5.717-3.831,17.972,17.972,0,0,1,7-1.4,17.971,17.971,0,0,1,7,1.4,17.955,17.955,0,0,1,5.715,3.831A17.77,17.77,0,0,1,1041.3-9510a17.633,17.633,0,0,1,1.414,6.956,17.651,17.651,0,0,1-1.414,6.959,17.747,17.747,0,0,1-3.855,5.679,17.957,17.957,0,0,1-5.715,3.832,17.971,17.971,0,0,1-7,1.4A17.972,17.972,0,0,1,1017.73-9486.575Zm-8.013-16.47a14.982,14.982,0,0,0,15.015,14.917,14.982,14.982,0,0,0,15.015-14.917,14.985,14.985,0,0,0-15.015-14.919A14.985,14.985,0,0,0,1009.717-9503.045Zm-2.346,14.315h-.007A29.7,29.7,0,0,1,979-9518.347,29.785,29.785,0,0,1,1008.819-9548h.041l.144,0a29.755,29.755,0,0,1,29.632,28l.01.148-.247.015a1.378,1.378,0,0,1-.968,1.083,1.461,1.461,0,0,1-.405.058,1.4,1.4,0,0,1-1.335-.989c-1.045-3.466-6.041-6.619-13.38-8.457.213,1.307.371,2.487.484,3.609a1.38,1.38,0,0,1-.307,1.014,1.394,1.394,0,0,1-.947.5,1.05,1.05,0,0,1-.146.01,1.387,1.387,0,0,1-1.383-1.256c-.149-1.5-.364-3.02-.647-4.52a57.705,57.705,0,0,0-10.519-.956,58.035,58.035,0,0,0-10.519.938,57.012,57.012,0,0,0-.942,10.449,56.807,56.807,0,0,0,.956,10.455c1.548.285,3.106.506,4.63.654a1.376,1.376,0,0,1,.944.5,1.369,1.369,0,0,1,.309,1.014,1.386,1.386,0,0,1-1.387,1.255c-.043,0-.086,0-.137-.007-1.172-.112-2.389-.273-3.717-.489,1.874,7.409,5.1,12.384,8.662,13.328a1.368,1.368,0,0,1,.752.527,1.363,1.363,0,0,1,.431,1.057,1.391,1.391,0,0,1-1.395,1.32Zm-17.663-10.625a26.929,26.929,0,0,0,12.139,6.976,22.086,22.086,0,0,1-3.352-5.36,39.488,39.488,0,0,1-2.557-7.8,40.051,40.051,0,0,1-7.86-2.56,22.278,22.278,0,0,1-5.344-3.307A26.823,26.823,0,0,0,989.709-9499.354Zm-4.112-24.7c-2.487,1.751-3.8,3.726-3.8,5.71,0,1.94,1.308,3.894,3.786,5.652a29.8,29.8,0,0,0,9.784,4.148,61.231,61.231,0,0,1-.774-9.8,61.258,61.258,0,0,1,.769-9.808A29.8,29.8,0,0,0,985.6-9524.057Zm33.554-14.919a39.411,39.411,0,0,1,2.574,7.809,40.114,40.114,0,0,1,7.852,2.55,22.343,22.343,0,0,1,5.4,3.338,26.628,26.628,0,0,0-7.014-12.058,27.151,27.151,0,0,0-12.137-6.949A22.209,22.209,0,0,1,1019.151-9538.976Zm-29.423,1.639a26.853,26.853,0,0,0-7.011,12.039,22.534,22.534,0,0,1,5.38-3.321,39.9,39.9,0,0,1,7.845-2.548,39.358,39.358,0,0,1,2.564-7.795,22.211,22.211,0,0,1,3.34-5.341A27.093,27.093,0,0,0,989.728-9537.337Zm19.177,4.826a62.106,62.106,0,0,1,9.8.773,29.475,29.475,0,0,0-4.169-9.714c-1.766-2.464-3.731-3.767-5.681-3.771h-.024c-1.994.007-3.978,1.315-5.739,3.788a29.43,29.43,0,0,0-4.114,9.688,62.208,62.208,0,0,1,9.868-.765Zm15,37.887-.007,0a2.445,2.445,0,0,1-.956-.781l0,0a2.394,2.394,0,0,1-.192-.361,2.338,2.338,0,0,1-.163-.822,2.107,2.107,0,0,1,.635-1.5,2.124,2.124,0,0,1,1.512-.62,2.128,2.128,0,0,1,1.512.62,2.111,2.111,0,0,1,.625,1.5,2.1,2.1,0,0,1-.625,1.5,1.981,1.981,0,0,1-.685.47,2.178,2.178,0,0,1-.827.161A2.211,2.211,0,0,1,1023.908-9494.624Zm-1.323-7.925v-6.941a2.142,2.142,0,0,1,2.147-2.133,2.142,2.142,0,0,1,2.147,2.133v6.941a2.142,2.142,0,0,1-2.147,2.133A2.142,2.142,0,0,1,1022.585-9502.549Z" transform="translate(-511 10035)" fill="#2a2c2e"/>
    <rect id="Rectangle_140143" data-name="Rectangle 140143" width="66" height="66" transform="translate(467 485)" fill="none"/>
  </g>
</svg>
