<svg xmlns="http://www.w3.org/2000/svg" width="68.128" height="68.13" viewBox="0 0 68.128 68.13"><path d="M2368.767,2784.63a18.862,18.862,0,0,1-17.937-13.029H2319.5v-38.424l11.112-16.677h32.878l11.11,16.677v14.653a18.863,18.863,0,0,1-5.833,36.8Zm-6.079-33.541a15.905,15.905,0,1,0,6.081-1.208A15.819,15.819,0,0,0,2362.688,2751.089Zm-40.218,17.539h27.668a19.466,19.466,0,0,1-.23-2.855,18.864,18.864,0,0,1,18.861-18.865,19.508,19.508,0,0,1,2.858.231v-12.463h-49.157Zm26.066-36.924h21.517l-8.155-12.233h-13.362Zm-24.491,0h21.517v-12.233H2332.2Zm35.249,35.212,2.249-2.25,4.572,4.572,9.383-9.384,2.25,2.249-11.633,11.634Z" transform="translate(-2319.5 -2716.5)" fill="#2a2c2e"/></svg>