<svg xmlns="http://www.w3.org/2000/svg" width="29.009" height="26.147" viewBox="0 0 29.009 26.147">
  <path id="icon-Cloud_Services_Solutions" data-name="icon-Cloud Services &amp;  Solutions" d="M22.8,25.034a1.084,1.084,0,1,1,1.081,1.113A1.1,1.1,0,0,1,22.8,25.034Zm-9.379,0A1.084,1.084,0,1,1,14.5,26.147,1.1,1.1,0,0,1,13.424,25.034Zm-9.38,0a1.084,1.084,0,1,1,1.082,1.113A1.1,1.1,0,0,1,4.043,25.034Zm21.8.481a1.944,1.944,0,0,0,0-.963h2.533a.482.482,0,0,1,0,.963Zm-9.379,0a1.959,1.959,0,0,0,0-.963h5.461a2.023,2.023,0,0,0,0,.963Zm-9.379,0a1.944,1.944,0,0,0,0-.963h5.463a1.968,1.968,0,0,0-.057.481,1.936,1.936,0,0,0,.062.481Zm-6.444,0a.482.482,0,0,1,0-.963H3.168a1.959,1.959,0,0,0,0,.963Zm23.246-2.562a2.1,2.1,0,0,0-.463.057v-.847h-1.98a.593.593,0,0,1-.585-.6v-8.6a.593.593,0,0,1,.585-.6h4.9a.593.593,0,0,1,.585.6v8.6a.593.593,0,0,1-.585.6H24.362v.851A1.973,1.973,0,0,0,23.888,22.953ZM23.2,19.9a.579.579,0,0,0,.571.591.59.59,0,0,0,0-1.18A.579.579,0,0,0,23.2,19.9ZM22.2,16.336a.475.475,0,0,0,.467.481H25.1a.482.482,0,0,0,0-.963H22.671A.476.476,0,0,0,22.2,16.336Zm0-1.772a.476.476,0,0,0,.467.483H25.1a.482.482,0,0,0,0-.964H22.671A.476.476,0,0,0,22.2,14.563Zm-7.7,8.39a2.165,2.165,0,0,0-.463.057v-.847h-1.98a.593.593,0,0,1-.585-.6v-8.6a.593.593,0,0,1,.585-.6h4.9a.593.593,0,0,1,.585.6v8.6a.593.593,0,0,1-.585.6h-1.98v.851A1.994,1.994,0,0,0,14.5,22.953ZM13.938,19.9a.574.574,0,1,0,.571-.588A.582.582,0,0,0,13.938,19.9Zm-1.115-3.565a.473.473,0,0,0,.469.481H15.73a.482.482,0,0,0,0-.963H13.292A.478.478,0,0,0,12.823,16.336Zm0-1.771a.478.478,0,0,0,.469.481H15.73a.482.482,0,0,0,0-.964H13.292A.474.474,0,0,0,12.823,14.565Zm-7.7,8.388a2.259,2.259,0,0,0-.468.057v-.847H2.678a.594.594,0,0,1-.585-.6v-8.6a.593.593,0,0,1,.585-.6h4.9a.593.593,0,0,1,.585.6v8.6a.593.593,0,0,1-.585.6H5.593v.847A1.912,1.912,0,0,0,5.125,22.953ZM4.434,19.9A.573.573,0,1,0,5,19.312.581.581,0,0,0,4.434,19.9Zm-.993-3.565a.477.477,0,0,0,.468.483H6.342a.482.482,0,0,0,0-.964H3.909A.476.476,0,0,0,3.441,16.336Zm0-1.772a.477.477,0,0,0,.468.483H6.342a.482.482,0,0,0,0-.964H3.909A.476.476,0,0,0,3.441,14.563Zm15.033,4.152V12.964A1.547,1.547,0,0,0,16.952,11.4H12.057a1.547,1.547,0,0,0-1.521,1.565v5.751H9.094V12.964A1.548,1.548,0,0,0,7.573,11.4h-4.9a1.547,1.547,0,0,0-1.521,1.565v3.684A5.543,5.543,0,0,1,0,13.249,5.394,5.394,0,0,1,5.3,7.783a5.234,5.234,0,0,1,1.7.289c0-.1,0-.2,0-.294a5.391,5.391,0,0,1,5.313-5.467,5.186,5.186,0,0,1,3.342,1.224A5.925,5.925,0,0,1,21.037,0a6.024,6.024,0,0,1,5.935,6.107,6.157,6.157,0,0,1-.514,2.48,5.486,5.486,0,0,1,2.551,4.662,5.552,5.552,0,0,1-1.156,3.4V12.964A1.548,1.548,0,0,0,26.331,11.4h-4.9a1.547,1.547,0,0,0-1.521,1.565v5.751Z" fill="#2a2c2e"/>
</svg>
