<svg xmlns="http://www.w3.org/2000/svg" width="35.255" height="37.914" viewBox="0 0 35.255 37.914"><g transform="translate(0.15 -0.043)"><g transform="translate(0 0.193)"><path d="M9.962,24.766H30.687A4.276,4.276,0,0,0,34.954,20.5V11.686a.1.1,0,0,0-.008-.046c0-.015-.008-.039-.008-.054s-.008-.031-.008-.046a.492.492,0,0,1-.015-.054c-.008-.015-.008-.031-.015-.046s-.008-.031-.015-.046a.377.377,0,0,1-.023-.054.169.169,0,0,0-.023-.039l-.023-.046c-.008-.015-.015-.023-.023-.039s-.023-.031-.031-.046a.136.136,0,0,0-.031-.039c-.008-.015-.023-.023-.031-.039s-.023-.023-.031-.039-.023-.023-.031-.031l-.039-.039c-.015-.008-.023-.023-.039-.031s-.031-.023-.046-.031-.023-.015-.039-.023a.162.162,0,0,1-.046-.031l-.046-.023-.046-.023L34.29,10.8c-.015-.008-.031-.008-.046-.015a.143.143,0,0,0-.054-.015.335.335,0,0,1-.039-.008.17.17,0,0,0-.062-.008c-.008,0-.015-.008-.031-.008L7.79,7.117V3.453a.475.475,0,0,0-.008-.108.058.058,0,0,0-.008-.031c0-.023-.008-.046-.008-.07s-.008-.039-.015-.062-.008-.023-.008-.039l-.023-.07c0-.008-.008-.023-.008-.031a.231.231,0,0,0-.031-.062c-.008-.008-.008-.023-.015-.031A.162.162,0,0,0,7.635,2.9c-.008-.015-.015-.023-.023-.039s-.015-.023-.023-.039-.023-.031-.031-.046l-.023-.023-.046-.046-.023-.023a.336.336,0,0,0-.054-.046c-.008-.008-.023-.015-.031-.023S7.349,2.6,7.334,2.58a.713.713,0,0,0-.062-.039c-.008-.008-.015-.008-.023-.015-.031-.015-.07-.031-.1-.046l-5.7-2.4A1.045,1.045,0,0,0,.639,2.007L5.695,4.141V27.008a4.272,4.272,0,0,0,3.718,4.229A4.211,4.211,0,1,0,17.236,33.4a4.133,4.133,0,0,0-.58-2.126h9.385a4.154,4.154,0,0,0-.58,2.126,4.213,4.213,0,1,0,4.213-4.213H9.962a2.182,2.182,0,0,1-2.18-2.18V24.178A4.316,4.316,0,0,0,9.962,24.766Zm5.195,8.627a2.126,2.126,0,1,1-2.126-2.126A2.13,2.13,0,0,1,15.157,33.393Zm16.651,0a2.126,2.126,0,1,1-2.126-2.126A2.13,2.13,0,0,1,31.808,33.393ZM30.687,22.679H9.962a2.182,2.182,0,0,1-2.18-2.18V9.22l25.085,3.455v7.815A2.184,2.184,0,0,1,30.687,22.679Z" fill="#2a2c2e"/><path d="M29.675,37.764a4.359,4.359,0,0,1-3.887-6.339H16.912a4.3,4.3,0,0,1,.474,1.976,4.363,4.363,0,1,1-8.21-2.049,4.425,4.425,0,0,1-3.631-4.344V4.241L.581,2.146A1.192,1.192,0,0,1-.056.581,1.193,1.193,0,0,1,1.509-.056l5.706,2.4.044.02.056.026.027.016.012.008c.02.011.04.025.062.04l.012.008.011.01.007.005a.372.372,0,0,1,.032.026l.024.018a.5.5,0,0,1,.068.059l.11.11.012.022a.293.293,0,0,1,.03.046l0,0a.315.315,0,0,1,.021.035l0,0,.009.014a.3.3,0,0,1,.037.056.184.184,0,0,1,.018.035A.371.371,0,0,1,7.855,3l.008.028,0,.014.027.082v.009a.2.2,0,0,1,.006.025c0,.011.005.021.007.031a.1.1,0,0,0,0,.013l.008.023v.024l0,.01c0,.007,0,.016,0,.026a.2.2,0,0,1,.009.045.666.666,0,0,1,.009.128V6.987l26.132,3.607a.2.2,0,0,1,.041.008.292.292,0,0,1,.071.011l.02,0a.3.3,0,0,1,.1.027.254.254,0,0,1,.054.019l.161.08.017.017.007,0a.313.313,0,0,1,.035.021l0,0a.287.287,0,0,1,.045.029l.005,0a.212.212,0,0,1,.048.035l.008,0,.051.051a.853.853,0,0,1,.086.1.24.24,0,0,1,.023.027.257.257,0,0,1,.045.061l0,.005a.292.292,0,0,1,.03.046l0,0a.313.313,0,0,1,.021.035l.016.033a.378.378,0,0,1,.03.052l.008.02a.236.236,0,0,0,.015.034.251.251,0,0,1,.019.054h0a.257.257,0,0,1,.016.046l0,.013a.392.392,0,0,1,.011.042h0l.012.024v.025a.244.244,0,0,1,.008.049v.006c0,.006,0,.014,0,.022a.261.261,0,0,1,.011.081V20.5a4.422,4.422,0,0,1-4.417,4.417H9.962a4.477,4.477,0,0,1-2.03-.485v2.576a2.032,2.032,0,0,0,2.03,2.03H29.675a4.363,4.363,0,1,1,0,8.726ZM16.392,31.125H26.3l-.134.226a4.021,4.021,0,0,0-.559,2.049,4.063,4.063,0,1,0,4.063-4.063H9.962a2.333,2.333,0,0,1-2.33-2.33V23.917l.226.132a4.167,4.167,0,0,0,2.1.567H30.687A4.122,4.122,0,0,0,34.8,20.5V11.69l-.008-.015v-.033a.315.315,0,0,1-.006-.044c0-.007,0-.014,0-.022a.319.319,0,0,1-.008-.032v-.007a.271.271,0,0,1-.012-.039h0a.258.258,0,0,1-.016-.046.5.5,0,0,1-.024-.056h0l-.008-.008-.036-.071a.326.326,0,0,1-.018-.031l0-.005a.311.311,0,0,1-.026-.04l-.006-.006-.017-.017,0-.008a.221.221,0,0,1-.029-.037.232.232,0,0,1-.027-.032l-.016-.014L34.5,11.1a.231.231,0,0,1-.026-.023.349.349,0,0,1-.031-.021l-.005,0-.031-.018,0,0a.323.323,0,0,1-.063-.039l-.115-.057a.253.253,0,0,1-.053-.019h0a.227.227,0,0,1-.043-.007h-.006L34.1,10.9h-.014a.167.167,0,0,1-.056-.01L7.64,7.248V3.453a.45.45,0,0,0,0-.072l0-.015-.008-.017V3.314l0-.01c0-.009,0-.021,0-.034s0-.018-.006-.027a.1.1,0,0,0,0-.013L7.6,3.207V3.2A.2.2,0,0,1,7.6,3.176L7.57,3.094l0-.012L7.56,3.07a.181.181,0,0,1-.025-.045l0-.007-.006-.011L7.509,2.99,7.5,2.968a.313.313,0,0,1-.021-.035l0,0A.326.326,0,0,1,7.457,2.9l0-.005-.014-.02-.08-.08a.2.2,0,0,0-.031-.028l-.016-.012a.239.239,0,0,1-.038-.03l-.007-.005L7.24,2.7,7.2,2.675,7.179,2.66,7.17,2.654l-.032-.015-.052-.024L1.393.221A.895.895,0,0,0,.7,1.869L5.845,4.042V27.008a4.124,4.124,0,0,0,3.588,4.08l.227.029-.117.2A4.061,4.061,0,1,0,17.086,33.4a3.979,3.979,0,0,0-.558-2.049Zm13.291,4.544a2.276,2.276,0,1,1,2.276-2.276A2.278,2.278,0,0,1,29.682,35.669Zm0-4.252a1.976,1.976,0,1,0,1.976,1.976A1.978,1.978,0,0,0,29.682,31.417ZM13.031,35.669a2.276,2.276,0,1,1,2.276-2.276A2.278,2.278,0,0,1,13.031,35.669Zm0-4.252a1.976,1.976,0,1,0,1.976,1.976A1.978,1.978,0,0,0,13.031,31.417Zm17.656-8.588H9.962a2.333,2.333,0,0,1-2.33-2.33V9.048l25.385,3.5v7.946A2.336,2.336,0,0,1,30.687,22.829ZM7.932,9.392V20.5a2.032,2.032,0,0,0,2.03,2.03H30.687a2.036,2.036,0,0,0,2.03-2.038V12.806Z" fill="#2a2c2e"/></g></g></svg>