<svg xmlns="http://www.w3.org/2000/svg" width="36.002" height="21.525" viewBox="0 0 36.002 21.525">
  <path id="icon-Managed_Hyperscale_Service" data-name="icon-Managed Hyperscale Service" d="M10.143,15.053a3.668,3.668,0,0,0,.135,1.067,6.489,6.489,0,0,0,.381.862.507.507,0,0,1,.088.276.493.493,0,0,1-.228.363l-.756.5a.55.55,0,0,1-.31.111.521.521,0,0,1-.358-.17,3.383,3.383,0,0,1-.433-.563,7.886,7.886,0,0,1-.369-.7,4.433,4.433,0,0,1-3.521,1.653,3.278,3.278,0,0,1-2.4-.862,3.092,3.092,0,0,1-.884-2.3,3.082,3.082,0,0,1,1.09-2.467,4.365,4.365,0,0,1,2.935-.931,9.734,9.734,0,0,1,1.266.093c.446.058.9.159,1.377.263v-.873A2.636,2.636,0,0,0,7.6,9.451,2.754,2.754,0,0,0,5.646,8.9a5.638,5.638,0,0,0-1.3.152,9.712,9.712,0,0,0-1.289.411c-.141.064-.281.111-.422.159a.911.911,0,0,1-.188.035c-.17,0-.252-.123-.252-.375V8.7a.769.769,0,0,1,.082-.416.827.827,0,0,1,.334-.252,6.7,6.7,0,0,1,1.506-.539,7.216,7.216,0,0,1,1.869-.228,4.363,4.363,0,0,1,3.141.973,3.957,3.957,0,0,1,.99,2.942v3.879ZM5.285,16.875a3.8,3.8,0,0,0,1.231-.217A2.618,2.618,0,0,0,7.652,15.9a1.889,1.889,0,0,0,.411-.767,4.382,4.382,0,0,0,.117-1.043v-.5a9.741,9.741,0,0,0-1.1-.2,8.845,8.845,0,0,0-1.125-.071,2.759,2.759,0,0,0-1.781.48,1.661,1.661,0,0,0-.586,1.377,1.663,1.663,0,0,0,.44,1.266,1.669,1.669,0,0,0,1.26.446Zm9.615,1.3a.647.647,0,0,1-.457-.123,1,1,0,0,1-.252-.462L11.378,8.327a1.986,1.986,0,0,1-.106-.48c0-.193.093-.3.281-.3h1.178a.654.654,0,0,1,.462.117.939.939,0,0,1,.241.469l2.016,7.928,1.869-7.928a.84.84,0,0,1,.223-.469.811.811,0,0,1,.48-.117h.955a.73.73,0,0,1,.48.117.821.821,0,0,1,.228.469l1.892,8.021,2.069-8.021a1.094,1.094,0,0,1,.241-.469.776.776,0,0,1,.469-.117H25.47a.264.264,0,0,1,.3.3,1.176,1.176,0,0,1-.024.193,1.976,1.976,0,0,1-.082.3l-2.889,9.252a.88.88,0,0,1-.252.469.723.723,0,0,1-.451.117H21.039a.741.741,0,0,1-.48-.117.868.868,0,0,1-.223-.48L18.479,9.857l-1.846,7.711a.887.887,0,0,1-.228.48.75.75,0,0,1-.48.117Zm15.381.323a8.085,8.085,0,0,1-1.839-.217,5.255,5.255,0,0,1-1.377-.48.7.7,0,0,1-.446-.668v-.61c0-.252.1-.375.276-.375a.684.684,0,0,1,.217.035c.071.029.181.077.3.123a6.348,6.348,0,0,0,1.319.416,6.885,6.885,0,0,0,1.424.146,3.213,3.213,0,0,0,1.746-.4,1.292,1.292,0,0,0,.627-1.136,1.206,1.206,0,0,0-.322-.838,3.134,3.134,0,0,0-1.213-.621l-1.735-.539a3.648,3.648,0,0,1-1.916-1.218,2.871,2.871,0,0,1-.6-1.74,2.66,2.66,0,0,1,.328-1.33,3.142,3.142,0,0,1,.862-.979,3.744,3.744,0,0,1,1.242-.621,5.163,5.163,0,0,1,1.512-.205,6.018,6.018,0,0,1,.8.047c.276.035.528.082.78.135.234.058.462.117.679.188a2.506,2.506,0,0,1,.5.217,1.046,1.046,0,0,1,.358.3.645.645,0,0,1,.111.4v.563c0,.252-.1.381-.276.381a1.223,1.223,0,0,1-.457-.141,5.45,5.45,0,0,0-2.3-.469,3.081,3.081,0,0,0-1.594.334,1.15,1.15,0,0,0-.563,1.067,1.124,1.124,0,0,0,.358.849,3.631,3.631,0,0,0,1.319.663l1.7.533a3.644,3.644,0,0,1,1.857,1.154,2.7,2.7,0,0,1,.551,1.676,3.156,3.156,0,0,1-.31,1.388,3.373,3.373,0,0,1-.873,1.055,3.942,3.942,0,0,1-1.33.668,5.809,5.809,0,0,1-1.717.252Zm2.267,5.817a25.81,25.81,0,0,1-14.585,4.453A26.377,26.377,0,0,1,.157,21.973c-.369-.334-.035-.791.411-.522A35.928,35.928,0,0,0,18.38,26.179,35.676,35.676,0,0,0,31.973,23.4c.656-.305,1.218.427.574.908Zm1.641-1.869c-.5-.645-3.334-.31-4.611-.152-.381.047-.446-.292-.093-.544,2.25-1.576,5.947-1.125,6.381-.6.427.544-.123,4.242-2.226,6.012-.322.276-.639.135-.493-.228.48-1.183,1.547-3.85,1.043-4.489Z" transform="translate(0.001 -7.238)"/>
</svg>
