<svg id="icon-Big_Data_Analytics" data-name="icon-Big Data &amp;  Analytics" xmlns="http://www.w3.org/2000/svg" xmlns:xlink="http://www.w3.org/1999/xlink" width="28.354" height="26.778" viewBox="0 0 28.354 26.778">
  <defs>
    <clipPath id="clip-path">
      <rect id="Rectangle_53" data-name="Rectangle 53" width="28.354" height="26.778" fill="none"/>
    </clipPath>
  </defs>
  <g id="Group_73" data-name="Group 73" clip-path="url(#clip-path)">
    <path id="Path_130" data-name="Path 130" d="M16.069,5.947a2.393,2.393,0,0,1,3.8-.492l3.86-2.294a7.022,7.022,0,0,1,.013-1.319A2.326,2.326,0,0,1,26.418.033a2.376,2.376,0,0,1,1.964,2.579,2.352,2.352,0,0,1-2.513,2.1,6.211,6.211,0,0,1-.925-.254.479.479,0,0,0-.322.011q-1.98,1.161-3.945,2.348a.386.386,0,0,0-.15.277,2.368,2.368,0,0,1-4.627.7.523.523,0,0,0-.23-.273c-1.193-.6-2.393-1.189-3.587-1.789a.27.27,0,0,0-.339.047A2.258,2.258,0,0,1,9.35,6.1a.32.32,0,0,0-.369.048Q6.89,7.714,4.79,9.272a.272.272,0,0,0-.117.343,2.252,2.252,0,0,1-.788,2.457,2.218,2.218,0,0,1-2.518.281A2.249,2.249,0,0,1,.05,10.132,2.341,2.341,0,0,1,3.362,8.1.368.368,0,0,0,3.8,8.052q2.043-1.542,4.1-3.063a.277.277,0,0,0,.123-.361,2.255,2.255,0,0,1,.7-2.46,2.212,2.212,0,0,1,2.426-.421A2.174,2.174,0,0,1,12.617,3.8a.672.672,0,0,0,.48.69c.924.437,1.836.9,2.753,1.353.073.036.147.068.219.1" transform="translate(-0.043 0)"/>
    <path id="Path_131" data-name="Path 131" d="M213,93.841q0-3.833,0-7.667c0-.747.268-1.014,1.016-1.015q1.37,0,2.74,0c.672,0,.965.293.965.959q0,7.708,0,15.417c0,.67-.285.95-.964.951h-2.74c-.759,0-1.017-.255-1.017-1.005q0-3.82,0-7.639" transform="translate(-189.374 -75.712)"/>
    <path id="Path_132" data-name="Path 132" d="M70.937,107.323q0-3.433,0-6.865c0-.732.271-1.005,1-1.006q1.4,0,2.8,0c.653,0,.94.287.94.949q0,2.671,0,5.343,0,4.235,0,8.471a.847.847,0,0,1-.236.736,1.051,1.051,0,0,1-.567.231c-1.042.022-2.085.016-3.128.008a.78.78,0,0,1-.8-.864c-.006-.812,0-1.624,0-2.436v-4.568" transform="translate(-63.067 -88.42)"/>
    <path id="Path_133" data-name="Path 133" d="M146.676,134.124q0,2.656,0,5.312c0,.71-.277.985-.988.985-.95,0-1.9,0-2.85,0a.792.792,0,0,1-.893-.883q-.006-5.409,0-10.818a.791.791,0,0,1,.889-.888q1.48-.006,2.96,0a.8.8,0,0,1,.881.9q0,2.7,0,5.4" transform="translate(-126.197 -113.648)"/>
    <path id="Path_134" data-name="Path 134" d="M4.722,160.94q0,1.868,0,3.736c0,.676-.279.949-.961.95q-1.425,0-2.85,0A.8.8,0,0,1,0,164.7q0-3.805,0-7.611a.8.8,0,0,1,.9-.911q1.467-.01,2.933,0a.8.8,0,0,1,.892.911c0,1.282,0,2.564,0,3.847" transform="translate(-0.001 -138.852)"/>
  </g>
</svg>
