<svg xmlns="http://www.w3.org/2000/svg" width="34.201" height="31.216" viewBox="0 0 34.201 31.216">
  <path id="icon-Quick_links" data-name="icon-Quick links" d="M-5.346,86.216a13.346,13.346,0,0,1-5.1-1.008,13.565,13.565,0,0,1-5.606-4.3,1.1,1.1,0,0,1-.14.01h-6.886a1.219,1.219,0,0,1-1.2-1.228,1.218,1.218,0,0,1,1.2-1.227h5.533a13.944,13.944,0,0,1-1.289-4.735h-5.963a1.185,1.185,0,0,1-.849-.356A1.23,1.23,0,0,1-26,72.5a1.248,1.248,0,0,1,.357-.873,1.186,1.186,0,0,1,.847-.356h5.966a13.944,13.944,0,0,1,1.289-4.735h-5.532a1.218,1.218,0,0,1-1.2-1.227,1.218,1.218,0,0,1,1.2-1.227h6.883a1.127,1.127,0,0,1,.143.008,13.524,13.524,0,0,1,5.919-4.423,13.339,13.339,0,0,1,4.784-.883,13.449,13.449,0,0,1,2.851.306A13.47,13.47,0,0,1,4.23,62.8l1.2,1.211-.169-.044a13.776,13.776,0,0,1,2.562,5.311,13.874,13.874,0,0,1-.274,7.428A13.728,13.728,0,0,1,3.49,82.9a13.46,13.46,0,0,1-6.646,3.139A13.415,13.415,0,0,1-5.346,86.216ZM-5.346,85.746Zm0-24.5a11,11,0,0,0-7.872,3.3A11.247,11.247,0,0,0-16.47,72.5a11.248,11.248,0,0,0,3.257,7.955,11,11,0,0,0,7.872,3.3A10.993,10.993,0,0,0,2.5,80.489l.029-.029A11.262,11.262,0,0,0,5.785,72.5a11.268,11.268,0,0,0-3.253-7.961,11.005,11.005,0,0,0-7.871-3.3v-.471h0Zm-.233,12.462-.008,0a1.221,1.221,0,0,1-.908-.845A1.257,1.257,0,0,1-6.332,71.8v-.087l.169-.115,5.016-5.075A1.186,1.186,0,0,1-.3,66.163a1.185,1.185,0,0,1,.849.356,1.249,1.249,0,0,1,.356.873,1.255,1.255,0,0,1-.22.705v.027l-.137.138L-4.5,73.371a1.2,1.2,0,0,1-.4.269,1.194,1.194,0,0,1-.45.088A1.2,1.2,0,0,1-5.574,73.706ZM-9.085,57.455a1.218,1.218,0,0,1-1.205-1.227A1.218,1.218,0,0,1-9.085,55h7.48A1.218,1.218,0,0,1-.4,56.228a1.217,1.217,0,0,1-1.2,1.227Z" transform="translate(26 -55)" fill="#2a2c2e"/>
</svg>
