<svg xmlns="http://www.w3.org/2000/svg" width="25.493" height="25.71" viewBox="0 0 25.493 25.71"><g transform="translate(0 25.71) rotate(-90)"><path d="M11.573,24.358a1.073,1.073,0,0,1-1.272,1.1l-.01,0a12.855,12.855,0,1,1,5.146,0c-.426.087-.031.006-.031.006a1.075,1.075,0,0,1-1.27-1.1V12.206c0-.474.272-.585.606-.248L17.071,14.3a1.284,1.284,0,0,0,1.813-1.818L13.731,7.235a1.246,1.246,0,0,0-1.8.006L6.826,12.478A1.284,1.284,0,0,0,8.639,14.3l2.328-2.338c.335-.337.606-.224.606.248Z" transform="translate(25.71 25.493) rotate(180)" fill="#2b8000" fill-rule="evenodd"/></g></svg>