<svg xmlns="http://www.w3.org/2000/svg" width="29.097" height="32" viewBox="0 0 29.097 32"><path d="M2110.552-1784.687a10.428,10.428,0,0,0-2.881-2.544c-1.478-1.011-.862-3.787-.861-5.413,0-3.214.345-6.64-1.847-9.277a10.225,10.225,0,0,0-7.062-3.544,14.988,14.988,0,0,0,.013-1.511,1.087,1.087,0,0,0-1.065-1.065,1.076,1.076,0,0,0-1.065,1.065,14.938,14.938,0,0,1-.014,1.512,11.827,11.827,0,0,0-5.778,2.085c-2.667,1.894-3.4,4.708-3.426,7.837-.014,1.943,0,3.886,0,5.829,0,.9.123,1.636-.551,2.273-.462.436-1.1.731-1.605,1.131-1.725,1.373-3.727,4.847-.829,6.272,1.567.771,3.866.423,5.539.413l1.759-.011a7.02,7.02,0,0,0,5.725,3.591,7.153,7.153,0,0,0,6.066-3.59h.207a28.122,28.122,0,0,0,6.088-.156C2111.281-1780.3,2111.806-1782.858,2110.552-1784.687Zm-17.044,5.035,3.181-.02,3.228.02A4.476,4.476,0,0,1,2093.507-1779.652Zm14-2.1c-3.58.2-7.234-.025-10.82-.047-3.209.02-6.42.063-9.63.059-1.259,0-3.538.022-2.46-1.742a8.743,8.743,0,0,1,2.632-2.211c1.813-1.3,1.47-3.293,1.469-5.32,0-2.775-.647-6.561.945-9,2.676-4.1,9.016-4.291,12.665-1.524,2.679,2.031,2.373,5.236,2.37,8.243,0,1.411-.011,2.823,0,4.234a4.035,4.035,0,0,0,.64,2.655,12.938,12.938,0,0,0,2.25,1.7,4.441,4.441,0,0,1,1.436,1.534C2109.433-1782.05,2108.409-1781.806,2107.509-1781.755Z" transform="translate(-2082.117 1808.041)" fill="#ebebeb"/></svg>