<svg xmlns="http://www.w3.org/2000/svg" width="24.352" height="24.352" viewBox="0 0 24.352 24.352">
  <path id="icon-FAQs" d="M82.176,24.352A12.176,12.176,0,1,1,94.352,12.176,12.212,12.212,0,0,1,82.176,24.352Zm0-22.323A10.147,10.147,0,1,0,92.323,12.176,10.177,10.177,0,0,0,82.176,2.029Zm0,16.235a1.091,1.091,0,0,1-1.015-1.015V11.161a1.017,1.017,0,0,1,1.015-1.015.959.959,0,0,1,1.015,1.015v6.189A1,1,0,0,1,82.176,18.264Zm0-10.147A1.017,1.017,0,0,1,81.161,7.1a.959.959,0,0,1,1.015-1.015,1.015,1.015,0,1,1,0,2.029Z" transform="translate(-70)" fill="#2b8000" fill-rule="evenodd"/>
</svg>
