<svg xmlns="http://www.w3.org/2000/svg" width="32" height="32" viewBox="0 0 32 32"><g transform="translate(-438.2 -602.5)"><circle cx="15" cy="15" r="15" transform="translate(439.2 603.5)" fill="#2b8000" stroke="#2b8000" stroke-miterlimit="10" stroke-width="2"/><g transform="translate(446.2 612.5)"><path d="M.18,6.6a.58.58,0,0,1,0-.84l.84-.84a.58.58,0,0,1,.84,0l.06.06,3.3,3.54a.29.29,0,0,0,.42,0L13.68.18h.06a.58.58,0,0,1,.84,0l.84.84a.58.58,0,0,1,0,.84h0l-9.6,9.96a.58.58,0,0,1-.84,0L.3,6.78Z" fill="#fff"/></g></g></svg>