<svg xmlns="http://www.w3.org/2000/svg" width="34.038" height="28.933" viewBox="0 0 34.038 28.933">
  <path id="noun-bot-3632531" d="M127.729,88.722a2.553,2.553,0,1,1,1.805-.748A2.552,2.552,0,0,1,127.729,88.722Zm22.976-.851a2.553,2.553,0,0,1-2.553,2.553H147.3V95.53a3.408,3.408,0,0,1-3.4,3.4H123.474a3.408,3.408,0,0,1-3.4-3.4V90.424h-.851a2.553,2.553,0,1,1,0-5.106h.851V80.213a3.408,3.408,0,0,1,3.4-3.4h8.51V71.7a1.7,1.7,0,1,1,3.4,0v5.106h8.51a3.408,3.408,0,0,1,3.4,3.4v5.106h.851a2.553,2.553,0,0,1,2.553,2.553ZM145.6,80.213a1.7,1.7,0,0,0-1.7-1.7H123.474a1.7,1.7,0,0,0-1.7,1.7V95.53a1.7,1.7,0,0,0,1.7,1.7H143.9a1.7,1.7,0,0,0,1.7-1.7Zm-5.957,3.4h0a2.553,2.553,0,1,0,1.8.748,2.553,2.553,0,0,0-1.8-.748Zm-1.14,7.71h0a13.8,13.8,0,0,1-9.633,0,.851.851,0,0,0-.578,1.6,15.466,15.466,0,0,0,10.79,0,.851.851,0,0,0-.578-1.6Z" transform="translate(-116.666 -70.001)"/>
</svg>
