<svg xmlns="http://www.w3.org/2000/svg" width="60.667" height="65" viewBox="0 0 60.667 65"><path d="M2115.5-4685h-1.311a7.068,7.068,0,0,1-1.908-.263,19.293,19.293,0,0,1-4.371-1.269,19.444,19.444,0,0,1-6.2-4.179,19.415,19.415,0,0,1-4.178-6.2,19.382,19.382,0,0,1-1.533-7.59,19.383,19.383,0,0,1,1.533-7.591,19.418,19.418,0,0,1,4.178-6.2,19.4,19.4,0,0,1,5.122-3.686v-20.333a7.883,7.883,0,0,1,2.121-5.406,7.2,7.2,0,0,1,5.234-2.288h25.366l.091,0,.089,0a1.492,1.492,0,0,1,1.43,1.1l15.172,18.837a1.484,1.484,0,0,1,.329.932v36.435a7.875,7.875,0,0,1-2.121,5.4,7.2,7.2,0,0,1-5.235,2.288Zm33.811-2.982a4.183,4.183,0,0,0,3.043-1.345,4.906,4.906,0,0,0,1.309-3.365v-34.558h-13.928a1.5,1.5,0,0,1-1.485-1.516v-18.25h-24.061a4.185,4.185,0,0,0-3.043,1.345,4.907,4.907,0,0,0-1.309,3.365v19.141a19.445,19.445,0,0,1,5.664-.834,19.366,19.366,0,0,1,7.59,1.532,19.433,19.433,0,0,1,6.2,4.18,19.438,19.438,0,0,1,4.178,6.2A19.383,19.383,0,0,1,2135-4704.5a19.382,19.382,0,0,1-1.533,7.59,19.434,19.434,0,0,1-4.178,6.2,19.6,19.6,0,0,1-3.416,2.729Zm-45.462-28.168a16.374,16.374,0,0,0-4.825,11.651,16.368,16.368,0,0,0,4.825,11.649,16.371,16.371,0,0,0,11.65,4.826,16.371,16.371,0,0,0,11.65-4.826,16.368,16.368,0,0,0,4.825-11.649,16.374,16.374,0,0,0-4.825-11.651,16.371,16.371,0,0,0-11.65-4.826A16.371,16.371,0,0,0,2103.85-4716.151Zm37.372-14.133h11.089l-11.089-13.768Zm-26.275,35.534a1.619,1.619,0,0,1-1.613-1.625,1.619,1.619,0,0,1,1.613-1.625h.023a1.619,1.619,0,0,1,1.614,1.625,1.619,1.619,0,0,1-1.614,1.625Zm-1.613-8v-8.918a1.566,1.566,0,0,1,1.625-1.5,1.567,1.567,0,0,1,1.625,1.5v8.918a1.567,1.567,0,0,1-1.625,1.5A1.566,1.566,0,0,1,2113.334-4702.75Z" transform="translate(-2096 4750)" fill="#2a2c2e"/></svg>