<svg xmlns="http://www.w3.org/2000/svg" width="32.526" height="31.925" viewBox="0 0 32.526 31.925"><path d="M8.168,31.419a2.965,2.965,0,0,1-.2-4.739,2.907,2.907,0,0,1,2.417-.6L13.3,22.414a1.133,1.133,0,0,1,.889-.429h2.959a1.148,1.148,0,0,1,0,2.3H14.74l-2.471,3.1a2.985,2.985,0,0,1,.337,2.457,2.95,2.95,0,0,1-1.823,1.919,2.906,2.906,0,0,1-2.615-.337Zm1.2-2.913a.652.652,0,0,0-.139.707.638.638,0,0,0,.59.4.648.648,0,0,0,.244-1.246.635.635,0,0,0-.695.139ZM1.182,25.945a2.957,2.957,0,0,1,0-4.729,2.9,2.9,0,0,1,2.591-.448,2.939,2.939,0,0,1,1.832,1.666H7.519l2.475-3.551a1.14,1.14,0,0,1,.933-.488h12.9a1.145,1.145,0,0,1,1.139,1.148v1.989l4.874-5.347-4.874-5.358v1.537a1.145,1.145,0,0,1-1.139,1.147H11.372a1.128,1.128,0,0,1-.9-.444L7.7,9.473H5.606a2.941,2.941,0,0,1-1.832,1.666,2.9,2.9,0,0,1-2.591-.449,2.957,2.957,0,0,1,0-4.729,2.9,2.9,0,0,1,2.591-.448A2.941,2.941,0,0,1,5.606,7.178H8.258a1.132,1.132,0,0,1,.9.444l2.77,3.595H22.685V7.877A1.138,1.138,0,0,1,24.665,7.1l7.561,8.309a1.147,1.147,0,0,1,0,1.551l-7.561,8.292a1.138,1.138,0,0,1-1.978-.775V20.69H11.519L9.043,24.24a1.136,1.136,0,0,1-.932.488H5.605a2.937,2.937,0,0,1-1.832,1.666,2.9,2.9,0,0,1-2.592-.448ZM2.47,23.122a.651.651,0,0,0-.139.707.637.637,0,0,0,.59.4.649.649,0,0,0,.244-1.246.637.637,0,0,0-.7.139Zm0-15.255a.651.651,0,0,0-.139.707.637.637,0,0,0,.59.4.649.649,0,0,0,.244-1.246.637.637,0,0,0-.7.139ZM2.92,18.9a2.9,2.9,0,0,1-1.942-.747,2.958,2.958,0,0,1-.441-3.89,2.907,2.907,0,0,1,5.069.547H17.153a1.148,1.148,0,0,1,0,2.3H5.606a2.924,2.924,0,0,1-1,1.252,2.891,2.891,0,0,1-1.684.543Zm-.638-2.942a.645.645,0,0,0,.4.6.619.619,0,0,0,.244.049.632.632,0,0,0,.451-.189.65.65,0,0,0,.139-.707.638.638,0,0,0-.59-.4A.646.646,0,0,0,2.282,15.953ZM14.194,9.923a1.132,1.132,0,0,1-.806-.335H13.38L13.3,9.493,10.382,5.826a2.9,2.9,0,0,1-2.214-.446A2.956,2.956,0,0,1,7.617.993,2.909,2.909,0,0,1,9.8,0h.022a2.9,2.9,0,0,1,1.951.76,2.955,2.955,0,0,1,.494,3.768l2.471,3.1h2.413a1.148,1.148,0,0,1,0,2.3ZM9.571,2.344a.648.648,0,0,0,.244,1.246.637.637,0,0,0,.59-.4.651.651,0,0,0-.139-.707.637.637,0,0,0-.7-.14Z" fill="#4b286d"/></svg>