<svg xmlns="http://www.w3.org/2000/svg" width="19.5" height="19.5" viewBox="0 0 19.5 19.5">
  <path id="Union_8" data-name="Union 8" d="M-23.341,74.5a2.66,2.66,0,0,1-1.88-.779A2.659,2.659,0,0,1-26,71.841V57.659a2.659,2.659,0,0,1,.779-1.88A2.66,2.66,0,0,1-23.341,55h7.092a.886.886,0,0,1,.886.886.886.886,0,0,1-.886.886h-7.092a.886.886,0,0,0-.886.886V71.841a.887.887,0,0,0,.886.886H-9.159a.886.886,0,0,0,.626-.26.885.885,0,0,0,.26-.626V64.75a.886.886,0,0,1,.886-.886.885.885,0,0,1,.626.26.886.886,0,0,1,.26.626v7.091a2.659,2.659,0,0,1-.779,1.88,2.659,2.659,0,0,1-1.88.779Zm7.383-9.98a.886.886,0,0,1,0-1.25l6.489-6.5h-2.349a.886.886,0,0,1-.886-.886A.886.886,0,0,1-11.818,55h4.432a.886.886,0,0,1,.626.26.886.886,0,0,1,.26.626v4.432a.887.887,0,0,1-.26.627.885.885,0,0,1-.626.259.884.884,0,0,1-.626-.259.887.887,0,0,1-.26-.627V58.1l-6.435,6.417a.884.884,0,0,1-.625.258A.884.884,0,0,1-15.958,64.52Z" transform="translate(26 -55)" fill="#2b8000"/>
</svg>
