<svg xmlns="http://www.w3.org/2000/svg" width="66" height="66" viewBox="0 0 66 66">
  <g id="icon-Quick_links" data-name="icon-Quick links" transform="translate(-880 -485)">
    <path id="icon-Quick_links-2" data-name="icon-Quick links" d="M13.254,115.112a25.077,25.077,0,0,1-9.686-1.941,25.825,25.825,0,0,1-10.655-8.28,2.062,2.062,0,0,1-.266.019H-20.438a2.333,2.333,0,0,1-2.286-2.365,2.33,2.33,0,0,1,2.284-2.363H-9.924a27.128,27.128,0,0,1-2.449-9.118H-23.707a2.237,2.237,0,0,1-1.614-.685A2.385,2.385,0,0,1-26,88.7a2.42,2.42,0,0,1,.679-1.68,2.24,2.24,0,0,1,1.61-.685h11.338a27.128,27.128,0,0,1,2.449-9.118H-20.438a2.331,2.331,0,0,1-2.286-2.363,2.33,2.33,0,0,1,2.284-2.363H-7.359a2.114,2.114,0,0,1,.272.016A25.735,25.735,0,0,1,4.162,63.99a25.166,25.166,0,0,1,14.511-1.112,25.509,25.509,0,0,1,12.78,7.14l2.277,2.333-.322-.084A26.677,26.677,0,0,1,38.279,82.5a27.056,27.056,0,0,1-.52,14.3,26.466,26.466,0,0,1-7.712,11.919,25.44,25.44,0,0,1-12.631,6.045A25.171,25.171,0,0,1,13.254,115.112ZM13.254,114.206Zm.009-47.182A20.771,20.771,0,0,0-1.7,73.381a22.051,22.051,0,0,0,0,30.636,20.8,20.8,0,0,0,29.87.065l.056-.056a22.094,22.094,0,0,0,0-30.657,20.781,20.781,0,0,0-14.96-6.345v-.906h0Zm-.442,24-.016,0A2.333,2.333,0,0,1,11.08,89.39a2.447,2.447,0,0,1,.3-2.044v-.168l.322-.221,9.534-9.773a2.242,2.242,0,0,1,3.229,0,2.422,2.422,0,0,1,.259,3.039v.051l-.261.266-9.594,9.839a2.285,2.285,0,0,1-.759.517,2.242,2.242,0,0,1-1.288.128ZM6.147,59.728a2.365,2.365,0,0,1,0-4.728H20.363a2.365,2.365,0,0,1,0,4.728Z" transform="translate(906.5 432.5)" fill="#2a2c2e"/>
    <path id="icon-Quick_links_-_Outline" data-name="icon-Quick links - Outline" d="M13.254,115.612a25.577,25.577,0,0,1-9.878-1.98,26.358,26.358,0,0,1-10.7-8.223H-20.438a2.833,2.833,0,0,1-2.786-2.865,2.831,2.831,0,0,1,2.783-2.863H-10.7a27.893,27.893,0,0,1-2.13-8.118H-23.707a2.733,2.733,0,0,1-1.973-.836A2.88,2.88,0,0,1-26.5,88.7a2.923,2.923,0,0,1,.821-2.03,2.735,2.735,0,0,1,1.967-.835h10.884a27.893,27.893,0,0,1,2.13-8.118h-9.74a2.832,2.832,0,0,1-2.786-2.863,2.831,2.831,0,0,1,2.783-2.863h13.12a26.259,26.259,0,0,1,11.3-8.467,25.666,25.666,0,0,1,14.8-1.134A26.007,26.007,0,0,1,31.812,69.67l3.534,3.62-.7-.183a27,27,0,0,1,4.12,9.274,27.553,27.553,0,0,1-.53,14.568,26.966,26.966,0,0,1-7.858,12.144A25.94,25.94,0,0,1,17.5,115.256,25.654,25.654,0,0,1,13.254,115.612ZM-6.863,104.358l.175.232a25.364,25.364,0,0,0,10.448,8.12,24.58,24.58,0,0,0,13.572,1.56,24.941,24.941,0,0,0,12.383-5.926,25.966,25.966,0,0,0,7.566-11.695,26.552,26.552,0,0,0,.511-14.039,26,26,0,0,0-4.778-10.036l-.9-1.161h0L31.1,70.368a25.009,25.009,0,0,0-12.531-7,24.666,24.666,0,0,0-14.222,1.09A25.272,25.272,0,0,0-6.688,72.809l-.175.232L-7.151,73a1.623,1.623,0,0,0-.208-.012H-20.441a1.829,1.829,0,0,0-1.784,1.863,1.831,1.831,0,0,0,1.787,1.863h11.3l-.334.712a26.81,26.81,0,0,0-2.4,8.95l-.04.457h-11.8a1.743,1.743,0,0,0-1.252.535A1.915,1.915,0,0,0-25.5,88.7a1.887,1.887,0,0,0,.536,1.328,1.741,1.741,0,0,0,1.257.535h11.792l.04.457a26.809,26.809,0,0,0,2.4,8.95l.334.712h-11.3a1.829,1.829,0,0,0-1.784,1.863,1.832,1.832,0,0,0,1.787,1.865H-7.352a1.572,1.572,0,0,0,.2-.014Zm20.126,6.517a21.266,21.266,0,0,1-15.32-6.508,22.551,22.551,0,0,1,0-31.335,21.268,21.268,0,0,1,14.822-6.5l0-.415,1,0v.412a21.28,21.28,0,0,1,14.817,6.49,22.594,22.594,0,0,1,0,31.356l-.06.06A21.264,21.264,0,0,1,13.263,110.875Zm0-43.351a20.274,20.274,0,0,0-14.6,6.206,21.551,21.551,0,0,0,0,29.938,20.3,20.3,0,0,0,29.155.064l.056-.056a21.594,21.594,0,0,0,0-29.958,20.284,20.284,0,0,0-14.6-6.194Zm-.009,24.039a2.761,2.761,0,0,1-.529-.051l-.046-.011A2.836,2.836,0,0,1,10.6,89.533a2.933,2.933,0,0,1,.281-2.33v-.287l.5-.343,9.5-9.738a2.742,2.742,0,0,1,3.945,0,2.921,2.921,0,0,1,.4,3.533v.111l-.4.412-9.593,9.837a2.784,2.784,0,0,1-.925.63A2.741,2.741,0,0,1,13.254,91.564Zm-.315-1.028a1.742,1.742,0,0,0,.98-.1,1.786,1.786,0,0,0,.592-.4l9.713-9.96.085-.126a1.945,1.945,0,0,0,.332-1.078,1.922,1.922,0,0,0-.535-1.331,1.742,1.742,0,0,0-2.512,0l-9.568,9.809-.145.1V87.5l-.083.126a1.96,1.96,0,0,0-.239,1.625,1.835,1.835,0,0,0,1.354,1.28Zm7.424-30.307H6.147a2.865,2.865,0,0,1,0-5.728H20.363a2.865,2.865,0,0,1,0,5.728ZM6.147,55.5a1.866,1.866,0,0,0,0,3.728H20.363a1.866,1.866,0,0,0,0-3.728Z" transform="translate(906.5 432.5)" fill="#fff"/>
    <rect id="Rectangle_140144" data-name="Rectangle 140144" width="66" height="66" transform="translate(880 485)" fill="none"/>
  </g>
</svg>
