<svg id="icon-RPA" xmlns="http://www.w3.org/2000/svg" xmlns:xlink="http://www.w3.org/1999/xlink" width="27.266" height="28.732" viewBox="0 0 27.266 28.732">
  <defs>
    <clipPath id="clip-path">
      <rect id="Rectangle_54" data-name="Rectangle 54" width="27.266" height="28.732" fill="none"/>
    </clipPath>
  </defs>
  <g id="Group_75" data-name="Group 75" clip-path="url(#clip-path)">
    <path id="Path_135" data-name="Path 135" d="M7.326,30.836H3.659c-.088.243-.179.482-.261.724s-.221.308-.448.194l-.083-.041c-.573-.273-.573-.273-1.076.1-.109-.8-.216-1.578-.322-2.358Q.988,25.9.508,22.343C.358,21.229.187,20.118.06,19a2.744,2.744,0,0,1,2.678-3.031,7.982,7.982,0,0,1,1.387.054,2.692,2.692,0,0,1,2.23,2.305Q6.987,23.113,7.6,27.9c.154,1.176.312,2.351.466,3.526.019.148.088.331-.137.375-.189.037-.3-.07-.355-.257-.071-.236-.165-.465-.253-.706M4.5,18.937A1.484,1.484,0,1,0,3,20.422a1.489,1.489,0,0,0,1.5-1.485" transform="translate(-0.037 -13.985)"/>
    <path id="Path_136" data-name="Path 136" d="M51.229,20.287c-.081-.6-.172-1.165-.234-1.736a3.816,3.816,0,0,0-1.1-2.361.459.459,0,0,1-.05-.094H61.131a4.025,4.025,0,0,0,.2,2.552l-10.1,1.639" transform="translate(-43.664 -14.1)"/>
    <path id="Path_137" data-name="Path 137" d="M130.038,55v.661h-.7v-.64a5.291,5.291,0,0,0-4.916,5.895h-.678a6.021,6.021,0,0,1,1.373-4.493,5.924,5.924,0,0,1,4.213-2.134V51.463h.7v2.815a5.952,5.952,0,0,1,4.649,2.716,6.1,6.1,0,0,1,.949,3.917h-.7a5.341,5.341,0,0,0-2.02-4.819,5.054,5.054,0,0,0-2.868-1.1" transform="translate(-108.375 -45.08)"/>
    <path id="Path_138" data-name="Path 138" d="M150.766,0A2.972,2.972,0,1,1,147.8,2.981,2.978,2.978,0,0,1,150.766,0m1.493,2.962a1.484,1.484,0,1,0-1.49,1.494,1.488,1.488,0,0,0,1.49-1.494" transform="translate(-129.471 0)"/>
    <path id="Path_139" data-name="Path 139" d="M10.127,152.216c-.518.516-1.01,1.015-1.516,1.5a.3.3,0,0,1-.285.023.918.918,0,0,0-.968-.013.985.985,0,0,0-.721.736.306.306,0,0,1-.238.157c-.629.013-1.258.015-1.887,0a.327.327,0,0,1-.249-.185.8.8,0,0,0-.689-.679.3.3,0,0,1-.112-.051.624.624,0,0,0-.79,0c-.179.13-.311.1-.469-.067-.454-.477-.93-.933-1.425-1.425.393-.425.269-.839.062-1.3a.72.72,0,0,0-.547-.5c-.236-.043-.3-.174-.292-.41.019-.567.015-1.134,0-1.7-.005-.2.047-.318.246-.347a.668.668,0,0,0,.605-.595c.047-.257.338-.445.174-.768-.237-.466-.222-.473.14-.835s.719-.71,1.069-1.075c.115-.12.219-.183.366-.07.55.423.976-.07,1.44-.217.1-.032.144-.28.188-.436a.281.281,0,0,1,.327-.238c.608.013,1.217,0,1.825.013.091,0,.243.1.258.171.081.4.351.556.7.715a.929.929,0,0,0,1.023-.029.8.8,0,0,1,.155-.063c.5.5,1,.991,1.478,1.5a.333.333,0,0,1,0,.312.843.843,0,0,0-.018.885c.162.376.308.7.765.77.061.009.148.139.149.215.012.639.014,1.279,0,1.918a.328.328,0,0,1-.191.246c-.373.081-.516.331-.682.653a1.011,1.011,0,0,0,.106,1.191m-4.68.425a3.466,3.466,0,1,0-3.457-3.474,3.471,3.471,0,0,0,3.457,3.474" transform="translate(0 -125.895)"/>
    <path id="Path_140" data-name="Path 140" d="M34.977,177.192a1.485,1.485,0,1,1-1.479-1.477,1.49,1.49,0,0,1,1.479,1.477" transform="translate(-28.036 -153.921)"/>
    <path id="Path_141" data-name="Path 141" d="M146.915,95.79c-.38.379-.741.745-1.113,1.1a.219.219,0,0,1-.209.017.674.674,0,0,0-.711-.01.723.723,0,0,0-.529.541.224.224,0,0,1-.174.115c-.462.01-.924.011-1.385,0a.241.241,0,0,1-.183-.135.585.585,0,0,0-.506-.5.224.224,0,0,1-.082-.037.458.458,0,0,0-.58,0c-.131.1-.228.073-.345-.049-.334-.35-.683-.685-1.046-1.046.288-.312.2-.616.046-.954a.529.529,0,0,0-.4-.367c-.173-.032-.22-.128-.214-.3.014-.416.011-.833,0-1.249,0-.145.034-.234.181-.255a.491.491,0,0,0,.444-.437c.035-.189.248-.327.128-.564-.174-.342-.163-.347.1-.613s.528-.521.785-.789c.085-.088.161-.134.269-.051.4.311.717-.051,1.057-.159.073-.023.106-.206.138-.32a.206.206,0,0,1,.24-.175c.447.01.893,0,1.34.009.067,0,.179.071.19.125.059.3.258.408.516.525a.682.682,0,0,0,.751-.021.581.581,0,0,1,.114-.047c.365.367.731.727,1.085,1.1a.245.245,0,0,1,0,.229.619.619,0,0,0-.013.65c.119.276.226.516.562.565.045.007.108.1.109.158.009.469.011.939,0,1.408a.242.242,0,0,1-.14.181c-.274.059-.379.243-.5.479a.742.742,0,0,0,.077.875m-3.436.312a2.544,2.544,0,1,0-2.538-2.55,2.549,2.549,0,0,0,2.538,2.55" transform="translate(-122.18 -78.446)"/>
    <path id="Path_142" data-name="Path 142" d="M165.158,114.126a1.091,1.091,0,1,1-1.086-1.084,1.094,1.094,0,0,1,1.086,1.084" transform="translate(-142.763 -99.021)"/>
  </g>
</svg>
