<svg xmlns="http://www.w3.org/2000/svg" width="25.077" height="25.077" viewBox="0 0 25.077 25.077"><path d="M-14.637,80.077a.981.981,0,0,1-.868-.52l-1.376-2.572c-.281-.1-.561-.219-.835-.347l-2.8.844a.974.974,0,0,1-.284.041.991.991,0,0,1-.7-.288l-1.66-1.661a.982.982,0,0,1-.246-.98l.844-2.8c-.125-.267-.239-.545-.342-.829l-2.58-1.382A.986.986,0,0,1-26,68.713v-2.35a.983.983,0,0,1,.518-.867l2.58-1.383c.1-.284.218-.562.342-.829l-.844-2.8a.98.98,0,0,1,.247-.98l1.66-1.66a.991.991,0,0,1,.7-.289.976.976,0,0,1,.284.042l2.8.844c.267-.124.545-.238.829-.34l1.383-2.58A.98.98,0,0,1-14.637,55h2.35a.982.982,0,0,1,.867.519l1.383,2.58c.283.1.562.216.829.34l2.8-.844a.97.97,0,0,1,.284-.042.992.992,0,0,1,.695.288L-3.766,59.5a.983.983,0,0,1,.247.978l-.844,2.8c.13.276.247.557.347.837L-1.444,65.5a.983.983,0,0,1,.52.868v2.35a.981.981,0,0,1-.52.868l-2.57,1.375c-.1.284-.219.567-.348.844l.842,2.794a.98.98,0,0,1-.247.98l-1.66,1.661a1,1,0,0,1-.7.288.962.962,0,0,1-.282-.041L-9.2,76.637c-.279.131-.562.248-.845.35l-1.374,2.57a.981.981,0,0,1-.868.52Zm-2.541-5.368a8.094,8.094,0,0,0,1.279.532.979.979,0,0,1,.57.474l1.282,2.394h1.171l1.281-2.394a.978.978,0,0,1,.575-.475,7.917,7.917,0,0,0,1.282-.53A1,1,0,0,1-9,74.642l2.6.786.829-.828L-6.358,72a.976.976,0,0,1,.068-.737,8.1,8.1,0,0,0,.53-1.283.976.976,0,0,1,.474-.574l2.394-1.281V66.953l-2.394-1.282a.976.976,0,0,1-.473-.569,8.183,8.183,0,0,0-.532-1.28.978.978,0,0,1-.068-.734l.786-2.61-.829-.83-2.609.787a1,1,0,0,1-.735-.068,8.176,8.176,0,0,0-1.272-.524.976.976,0,0,1-.569-.472l-1.289-2.4h-1.173l-1.289,2.4a.978.978,0,0,1-.569.472,8.14,8.14,0,0,0-1.272.524.994.994,0,0,1-.735.068l-2.609-.787-.829.83.786,2.609a.98.98,0,0,1-.067.735,8.028,8.028,0,0,0-.524,1.271.977.977,0,0,1-.473.57l-2.4,1.289v1.173l2.4,1.289a.973.973,0,0,1,.473.571,8.157,8.157,0,0,0,.523,1.27.979.979,0,0,1,.068.735l-.786,2.61.829.828,2.609-.786a.982.982,0,0,1,.281-.04A1,1,0,0,1-17.177,74.709Zm-.677-7.168a4.4,4.4,0,0,1,4.395-4.395,4.4,4.4,0,0,1,4.395,4.395,4.4,4.4,0,0,1-4.395,4.395A4.4,4.4,0,0,1-17.854,67.541Zm1.967,0a2.43,2.43,0,0,0,2.427,2.427,2.43,2.43,0,0,0,2.427-2.427,2.43,2.43,0,0,0-2.427-2.427A2.43,2.43,0,0,0-15.887,67.541Z" transform="translate(26 -55)" fill="#2b8000"/></svg>