<svg xmlns="http://www.w3.org/2000/svg" width="61.5" height="61.5" viewBox="0 0 61.5 61.5"><path d="M175.093,106.619V54.05a4.305,4.305,0,0,0-4.305-4.305h-46.74a4.305,4.305,0,0,0-4.305,4.305l.011,52.556a1.562,1.562,0,0,1-1.552,1.552,1.538,1.538,0,0,1-1.523-1.552l-.011-52.556a7.38,7.38,0,0,1,7.38-7.38h46.74a7.38,7.38,0,0,1,7.38,7.38v52.569a1.537,1.537,0,1,1-3.075,0Zm-6.15-9.211a1.537,1.537,0,0,0-1.537-1.538H145.879a1.537,1.537,0,0,0,0,3.075h21.526A1.537,1.537,0,0,0,168.943,97.408ZM152.031,86.645a1.537,1.537,0,1,1,0,3.075h-24.6a1.537,1.537,0,0,1,0-3.075Zm16.912,1.538a1.537,1.537,0,0,0-1.537-1.538h-9.225a1.537,1.537,0,1,0,0,3.075h9.225A1.537,1.537,0,0,0,168.943,88.182Zm-1.537,16.912a1.537,1.537,0,0,1,0,3.075h-12.3a1.537,1.537,0,0,1,0-3.075Zm-16.914,1.538a1.537,1.537,0,0,0-1.537-1.538h-12.3a1.537,1.537,0,0,0,0,3.075h12.3A1.537,1.537,0,0,0,150.492,106.632Zm-19.987-1.538a1.537,1.537,0,0,1,0,3.075H127.43a1.537,1.537,0,0,1,0-3.075Zm10.762-7.687a1.537,1.537,0,0,0-1.537-1.538h-12.3a1.537,1.537,0,0,0,0,3.075h12.3a1.537,1.537,0,0,0,1.537-1.537ZM152.48,75.432l4.613,4.613a1.538,1.538,0,0,0,2.174-2.175l-4.613-4.613a1.7,1.7,0,0,0-.164-.142,10.761,10.761,0,1,0-2.153,2.153A1.7,1.7,0,0,0,152.48,75.432Zm-14.287-8.775a7.688,7.688,0,1,0,7.687-7.687A7.688,7.688,0,0,0,138.193,66.657Z" transform="translate(-116.668 -46.67)" fill="#bfbfbf" fill-rule="evenodd"/></svg>