<svg xmlns="http://www.w3.org/2000/svg" width="25.2" height="25.2" viewBox="0 0 25.2 25.2"><path d="M-22.309,76.51A12.515,12.515,0,0,1-26,67.6a12.515,12.515,0,0,1,3.691-8.909A12.515,12.515,0,0,1-13.4,55a12.515,12.515,0,0,1,8.91,3.691A12.517,12.517,0,0,1-.8,67.6a12.518,12.518,0,0,1-3.69,8.91A12.518,12.518,0,0,1-13.4,80.2,12.517,12.517,0,0,1-22.309,76.51Zm-2.026-8.91A10.947,10.947,0,0,0-13.4,78.535,10.947,10.947,0,0,0-2.465,67.6,10.947,10.947,0,0,0-13.4,56.665,10.948,10.948,0,0,0-24.335,67.6Zm9.573,6.6A1.36,1.36,0,0,1-13.4,72.843,1.359,1.359,0,0,1-12.038,74.2,1.358,1.358,0,0,1-13.4,75.55,1.359,1.359,0,0,1-14.762,74.2Zm.969-2.206a.931.931,0,0,1-.526-.772,4.655,4.655,0,0,1,.464-2.735,3.623,3.623,0,0,1,1.281-1.252l.155-.1c.093-.057.183-.11.275-.163a2.339,2.339,0,0,0,1.425-1.84l.039-.2.02-.158a1.825,1.825,0,0,0-.677-1.466,3.174,3.174,0,0,0-2.079-.792,2.653,2.653,0,0,0-2.727,2.56.926.926,0,0,1-.463.81.942.942,0,0,1-.468.123.932.932,0,0,1-.467-.124.927.927,0,0,1-.464-.813,4.508,4.508,0,0,1,4.59-4.409,5.021,5.021,0,0,1,3.333,1.273A3.666,3.666,0,0,1-8.81,64.986l-.034.254-.05.261a4.419,4.419,0,0,1-2.313,3.072l-.238.144a2.065,2.065,0,0,0-.795.692,2.96,2.96,0,0,0-.22,1.669.924.924,0,0,1-.4.841.929.929,0,0,1-.528.163A.952.952,0,0,1-13.793,71.991Z" transform="translate(26 -55)" fill="#2b8000"/></svg>