<svg xmlns="http://www.w3.org/2000/svg" width="26.003" height="26.003" viewBox="0 0 26.003 26.003">
  <path id="icon-Mainframe" d="M23.091,0a2.808,2.808,0,0,1,2.065.847A2.814,2.814,0,0,1,26,2.912v20.18A2.891,2.891,0,0,1,23.091,26H2.844a2.732,2.732,0,0,1-2-.847A2.81,2.81,0,0,1,0,23.091V2.912A2.808,2.808,0,0,1,.847.847a2.736,2.736,0,0,1,2-.847Zm0,17.335V2.912H2.844V17.335H8.668A4.277,4.277,0,0,0,13,21.669a4.277,4.277,0,0,0,4.334-4.334ZM18.757,10.09,13,15.914,7.245,10.09H10.09V5.756h5.824V10.09h2.844Z" fill="#2a2c2e"/>
</svg>
