<svg xmlns="http://www.w3.org/2000/svg" width="66" height="66" viewBox="0 0 66 66">
  <g id="Icon-_Create_Request" data-name="Icon- Create Request" transform="translate(-880 -237)">
    <path id="Union_41" data-name="Union 41" d="M980.5-9484.575a1.5,1.5,0,0,1-1.5-1.5v-57.77a1.5,1.5,0,0,1,1.5-1.5h22.822a1.5,1.5,0,0,1,1.5,1.5,1.5,1.5,0,0,1-1.5,1.5H982v54.77h44.022v-34.772a1.5,1.5,0,0,1,1.5-1.5,1.5,1.5,0,0,1,1.5,1.5v36.272a1.5,1.5,0,0,1-1.5,1.5Zm15.478-13.74a1.5,1.5,0,0,1-1.5-1.5,1.5,1.5,0,0,1,1.5-1.5h15.993a1.5,1.5,0,0,1,1.5,1.5,1.5,1.5,0,0,1-1.5,1.5Zm0-7.325a1.5,1.5,0,0,1-1.5-1.5,1.5,1.5,0,0,1,1.5-1.5h15.993a1.5,1.5,0,0,1,1.5,1.5,1.5,1.5,0,0,1-1.5,1.5Zm-5.6-7.323a1.5,1.5,0,0,1-1.5-1.5,1.5,1.5,0,0,1,1.5-1.5h27.184a1.5,1.5,0,0,1,1.5,1.5,1.5,1.5,0,0,1-1.5,1.5Zm10.994-9.314a1.3,1.3,0,0,1-1.3-1.3v-4.9a3.479,3.479,0,0,1,1.026-2.476l15.7-15.7a4.567,4.567,0,0,1,3.252-1.347,4.562,4.562,0,0,1,3.252,1.347l1.15,1.15a4.569,4.569,0,0,1,1.347,3.252,4.568,4.568,0,0,1-1.347,3.249l-.144.144-15.557,15.557a3.48,3.48,0,0,1-2.473,1.023Zm1.565-6.839a.909.909,0,0,0-.264.638v3.6h3.6a.9.9,0,0,0,.635-.264l11.9-11.9-3.978-3.976Zm15.7-15.7-1.963,1.963,3.978,3.978,1.963-1.965a2,2,0,0,0,0-2.825c-.379-.381-.772-.771-1.15-1.15a1.987,1.987,0,0,0-1.414-.587A1.987,1.987,0,0,0,1018.639-9544.815Z" transform="translate(-91 9786)" fill="#2a2c2e"/>
    <rect id="Rectangle_140141" data-name="Rectangle 140141" width="66" height="66" transform="translate(880 237)" fill="none"/>
  </g>
</svg>
