<svg xmlns="http://www.w3.org/2000/svg" width="29.797" height="28.249" viewBox="0 0 29.797 28.249"><path d="M2114.218-4721.753a17.655,17.655,0,0,1-2.693-.38h-.007a21.723,21.723,0,0,1-9.464-5.759,20.662,20.662,0,0,1-5.664-9.5,16.151,16.151,0,0,1-.378-2.713,3.674,3.674,0,0,1,1.63-3.354l2.68-1.806a2.907,2.907,0,0,1,1.639-.5,3.028,3.028,0,0,1,.764.1,3.023,3.023,0,0,1,1.9,1.543l2.166,4.234a3.022,3.022,0,0,1-.822,3.746l-.876.68a13.566,13.566,0,0,0,2.013,2.517l0,.006a12.982,12.982,0,0,0,2.44,1.985l.7-.905a2.964,2.964,0,0,1,2.352-1.16,3.064,3.064,0,0,1,1.369.33l.007,0,4.193,2.2a2.943,2.943,0,0,1,1.518,1.881,3,3,0,0,1-.362,2.417l-1.764,2.724a3.582,3.582,0,0,1-3.088,1.71Zm-12.609-21.509-2.688,1.813a1.306,1.306,0,0,0-.56,1.167,14.741,14.741,0,0,0,.293,2.277,19.653,19.653,0,0,0,5.036,8.411,19.038,19.038,0,0,0,8.384,5.122,14.522,14.522,0,0,0,2.254.294h.109a1.266,1.266,0,0,0,1.085-.586l0-.008,1.764-2.722a.552.552,0,0,0,.077-.45l-.012-.043a.557.557,0,0,0-.282-.341l-.008,0-4.22-2.217a.513.513,0,0,0-.255-.066.57.57,0,0,0-.451.227l-1.363,1.742a1.257,1.257,0,0,1-.938.431,1.21,1.21,0,0,1-.582-.151,15.362,15.362,0,0,1-3.881-2.9,15.532,15.532,0,0,1-2.943-3.969l-.005-.011a1.22,1.22,0,0,1,.344-1.508l1.7-1.344a.6.6,0,0,0,.151-.734l-2.151-4.21a.684.684,0,0,0-.382-.307l-.052-.012-.013-.007c-.022,0-.057,0-.082,0A.557.557,0,0,0,2101.609-4743.263Zm9.628,9.246a2.873,2.873,0,0,1-2.549-1.481,2.915,2.915,0,0,1,0-2.963l5.791-10.059a2.908,2.908,0,0,1,2.548-1.481,2.951,2.951,0,0,1,2.545,1.475l5.827,10.066a2.948,2.948,0,0,1,0,2.965,2.875,2.875,0,0,1-2.548,1.478Zm5.354-13.289-5.823,10.062a.523.523,0,0,0,0,.525.511.511,0,0,0,.472.273h11.612a.514.514,0,0,0,.473-.275l.024-.036a.555.555,0,0,0-.007-.473l-5.807-10.065a.557.557,0,0,0-.473-.278A.524.524,0,0,0,2116.591-4747.306Zm-.344,8.978a.815.815,0,0,1,.811-.816.813.813,0,0,1,.809.816.813.813,0,0,1-.809.815A.815.815,0,0,1,2116.248-4738.329Zm-.4-2.424v-3.513a1.142,1.142,0,0,1,1.208-1.092,1.142,1.142,0,0,1,1.207,1.092v3.513a1.142,1.142,0,0,1-1.207,1.092A1.142,1.142,0,0,1,2115.851-4740.752Z" transform="translate(-2096 4750.001)" fill="#fff"/></svg>