<svg xmlns="http://www.w3.org/2000/svg" width="42.211" height="27.5" viewBox="0 0 42.211 27.5"><path d="M7.2,24.764a1.1,1.1,0,0,1-.68-1.014V11.867L.547,9.6V9.584A1.1,1.1,0,0,1,.708,7.608L20.572.071a1.1,1.1,0,0,1,.779,0L41.215,7.608a1.1,1.1,0,0,1,0,2.054l-.7.267V19.936a2.8,2.8,0,1,1-2.2,0V10.762L35.4,11.867V23.748a1.1,1.1,0,0,1-.68,1.015A35.976,35.976,0,0,1,20.962,27.5,35.976,35.976,0,0,1,7.2,24.764ZM8.72,23a33.622,33.622,0,0,0,12.243,2.3A33.617,33.617,0,0,0,33.2,23v-1.73a35.924,35.924,0,0,1-12.242,2.154A35.929,35.929,0,0,1,8.72,21.275Zm30.266-.924a.6.6,0,0,0,.426,1.029h0a.6.6,0,1,0-.43-1.029ZM8.72,18.93a33.6,33.6,0,0,0,12.243,2.3A33.6,33.6,0,0,0,33.2,18.93V12.7L21.353,17.2a1.1,1.1,0,0,1-.779,0L8.72,12.7ZM4.2,8.635l16.767,6.36,16.766-6.36L20.963,2.275Z" fill="#2a2c2e"/></svg>