<svg xmlns="http://www.w3.org/2000/svg" width="64.147" height="54.313" viewBox="0 0 64.147 54.313"><path d="M2351.573,2770.813a1.5,1.5,0,0,1-.525-.1,1.152,1.152,0,0,1-.112-.048.6.6,0,0,1-.078-.044l0,0-.014-.006a.729.729,0,0,1-.144-.078,26.038,26.038,0,0,0-6.786-2.8c-7.795-2.292-16.762-2.774-22.913-2.774a1.489,1.489,0,0,1-1.5-1.477v-45.5a1.489,1.489,0,0,1,1.5-1.477,90.314,90.314,0,0,1,21.744,2.322,36.078,36.078,0,0,1,8.833,3.273,36.057,36.057,0,0,1,8.833-3.273,90.325,90.325,0,0,1,21.744-2.322h.614l-.053.108a1.481,1.481,0,0,1,.936,1.37v45.5a1.489,1.489,0,0,1-1.5,1.477c-6.142,0-15.1.479-22.89,2.768a25.941,25.941,0,0,0-6.81,2.81.666.666,0,0,1-.137.073l-.009,0,0,0a.653.653,0,0,1-.1.058c-.035.016-.069.028-.1.038l-.009,0a1.5,1.5,0,0,1-.427.09.459.459,0,0,1-.09.01Zm-29.079-8.8a91.469,91.469,0,0,1,18.708,1.948,43.821,43.821,0,0,1,8.875,2.874v-42.171a34.033,34.033,0,0,0-7.832-2.891,84.243,84.243,0,0,0-19.75-2.308Zm38.413-40.242a34.012,34.012,0,0,0-7.836,2.893v42.169a43.825,43.825,0,0,1,8.875-2.874,91.533,91.533,0,0,1,18.708-1.948v-42.546A84.263,84.263,0,0,0,2360.907,2721.77Zm-3.976,33.084a1.456,1.456,0,0,1,.226-1.1,1.492,1.492,0,0,1,.962-.627,113.6,113.6,0,0,1,15.9-1.693h.015a1.48,1.48,0,0,1,1.565,1.409,1.46,1.46,0,0,1-.385,1.058,1.5,1.5,0,0,1-1.042.485,110.455,110.455,0,0,0-15.487,1.643,1.559,1.559,0,0,1-.285.026A1.5,1.5,0,0,1,2356.932,2754.854Zm-12.469,1.17a110.476,110.476,0,0,0-15.488-1.643,1.5,1.5,0,0,1-1.037-.478,1.453,1.453,0,0,1-.392-1.064,1.5,1.5,0,0,1,1.556-1.409h.007a113.861,113.861,0,0,1,15.92,1.693l.308.059v.034a1.487,1.487,0,0,1,.652.534,1.452,1.452,0,0,1,.225,1.1,1.492,1.492,0,0,1-1.468,1.2A1.547,1.547,0,0,1,2344.463,2756.023Zm0-7.653a110.741,110.741,0,0,0-15.488-1.643,1.5,1.5,0,0,1-1.043-.485,1.459,1.459,0,0,1-.385-1.058,1.506,1.506,0,0,1,1.535-1.408h.027a113.73,113.73,0,0,1,15.92,1.693l.308.059v.035a1.479,1.479,0,0,1,.652.535,1.45,1.45,0,0,1,.225,1.1,1.491,1.491,0,0,1-1.468,1.2A1.546,1.546,0,0,1,2344.463,2748.371Zm12.469-1.171a1.455,1.455,0,0,1,.226-1.1,1.491,1.491,0,0,1,.961-.628,113.72,113.72,0,0,1,15.92-1.693h.059a1.49,1.49,0,0,1,1.5,1.41,1.454,1.454,0,0,1-.385,1.058,1.5,1.5,0,0,1-1.042.485,110.455,110.455,0,0,0-15.487,1.643,1.592,1.592,0,0,1-.284.026A1.5,1.5,0,0,1,2356.932,2747.2Zm-12.469-6.481a110.6,110.6,0,0,0-15.488-1.644,1.493,1.493,0,0,1-1.043-.485,1.458,1.458,0,0,1-.385-1.057,1.5,1.5,0,0,1,1.554-1.41h.009a113.7,113.7,0,0,1,15.92,1.692,1.49,1.49,0,0,1,.96.628,1.45,1.45,0,0,1,.225,1.1,1.491,1.491,0,0,1-1.468,1.2A1.667,1.667,0,0,1,2344.463,2740.719Zm12.469-1.172a1.452,1.452,0,0,1,.226-1.1,1.489,1.489,0,0,1,.961-.629,113.814,113.814,0,0,1,15.92-1.693h.073a1.483,1.483,0,0,1,1.49,1.411,1.454,1.454,0,0,1-.392,1.065,1.5,1.5,0,0,1-1.036.477,110.676,110.676,0,0,0-15.487,1.643,1.549,1.549,0,0,1-.284.026A1.5,1.5,0,0,1,2356.932,2739.547Zm1.09-6.455v-.047a1.49,1.49,0,0,1-1.09-1.148,1.454,1.454,0,0,1,.226-1.1,1.492,1.492,0,0,1,.961-.628,113.826,113.826,0,0,1,15.92-1.692h.006a1.5,1.5,0,0,1,1.557,1.41,1.454,1.454,0,0,1-.392,1.065,1.5,1.5,0,0,1-1.036.477,110.676,110.676,0,0,0-15.487,1.643,1.6,1.6,0,0,1-.284.026Zm-13.558-.027a110.053,110.053,0,0,0-15.189-1.629l-.3-.014a1.477,1.477,0,1,1,.129-2.952,113.752,113.752,0,0,1,15.924,1.693,1.489,1.489,0,0,1,.961.628,1.455,1.455,0,0,1,.227,1.1,1.5,1.5,0,0,1-1.752,1.169Z" transform="translate(-2319.5 -2716.5)" fill="#2a2c2e"/></svg>