<svg xmlns="http://www.w3.org/2000/svg" width="18" height="18" viewBox="0 0 18 18"><path d="M18,.857V4.849a.91.91,0,0,1-.028.221h0a.856.856,0,0,1-.833.687H.856A.853.853,0,0,1,.011,5,.674.674,0,0,1,0,4.844V.852A.849.849,0,0,1,1.451.25a.856.856,0,0,1,.249.6v3.2H16.305V.852a.849.849,0,0,1,1.451-.6A.9.9,0,0,1,18,.857Z" transform="translate(0 12.242)" fill="#248700"/><path d="M10.088,4.5,5.911.312C5.906.3,5.894.3,5.889.29a.984.984,0,0,0-.55-.278C5.322.011,5.3.006,5.288.006A.615.615,0,0,0,5.186,0h0l-.1.006c-.017,0-.034.006-.051.006a.966.966,0,0,0-.55.278L4.466.312.289,4.5A.995.995,0,1,0,1.695,5.905L4.205,3.39v9.216A1,1,0,0,0,5.2,13.6a1.013,1.013,0,0,0,.7-.29.983.983,0,0,0,.289-.7V3.39L8.7,5.905a1,1,0,0,0,1.406,0A1.018,1.018,0,0,0,10.088,4.5Z" transform="translate(3.814)" fill="#248700"/></svg>