<svg xmlns="http://www.w3.org/2000/svg" width="31.961" height="32" viewBox="0 0 31.961 32"><path d="M2405.307-1653.427c-.5-3.093-3.2-7.3-6.894-5.732-1.509.641-2.766,2.2-3.906,3.357-.98.992-2.46,2.235-2.942,3.592-.679,1.911.919,2.848,2.038,3.921,1.781,1.71-.684,5.732-1.892,7.021a8.07,8.07,0,0,1-5.375,2.391c-1.892.153-2.437-2.369-4.408-2.646a3.556,3.556,0,0,0-2.755,1.2,45.388,45.388,0,0,0-3.819,3.721c-1.113,1.178-2.1,2.44-1.8,4.173a5.607,5.607,0,0,0,2.854,3.678c2.921,1.722,6.744,1.48,9.852.429,7.318-2.474,14.072-9.051,17.386-15.948A15.526,15.526,0,0,0,2405.307-1653.427Zm-3.007,6.907c-2.5,6.334-8.24,12.068-14.258,15.123a13.225,13.225,0,0,1-8.438,1.56c-1.541-.312-3.839-1.311-3.889-3.152-.038-1.391,1.868-2.854,2.814-3.8.7-.7,2.237-2.667,3.253-2.525.8.112,1.132,1.285,1.646,1.809a2.467,2.467,0,0,0,1.482.737,9.963,9.963,0,0,0,8.32-2.985,10.809,10.809,0,0,0,3.05-7.716A3.018,3.018,0,0,0,2394.9-1650c-.6-.463-1.454-.857-1.188-1.676.18-.554.934-1.154,1.332-1.582.872-.937,1.789-1.836,2.718-2.717.653-.62,1.265-1.315,2.232-1.288a3.211,3.211,0,0,1,2.5,2C2403.9-1652.594,2403.365-1649.219,2402.3-1646.519Z" transform="translate(-2373.501 1659.498)" fill="#ebebeb"/></svg>