<svg xmlns="http://www.w3.org/2000/svg" width="52" height="52" viewBox="0 0 52 52"><g transform="translate(-1789 -23)"><circle cx="26" cy="26" r="26" transform="translate(1789 23)" fill="#ebebeb"/><path d="M18.45,23.576v-4.1A3.08,3.08,0,0,0,15.375,16.4H5.126A3.08,3.08,0,0,0,2.05,19.476v4.1a1.025,1.025,0,0,1-2.05,0v-4.1a5.131,5.131,0,0,1,5.126-5.126H15.375A5.131,5.131,0,0,1,20.5,19.476v4.1a1.025,1.025,0,0,1-2.05,0ZM5.9,10.5a6.147,6.147,0,1,1,4.349,1.8A6.1,6.1,0,0,1,5.9,10.5ZM7.351,3.251a4.1,4.1,0,1,0,2.9-1.2A4.08,4.08,0,0,0,7.351,3.251Z" transform="translate(1805.177 37)" fill="#2a2c2e"/></g></svg>