<svg xmlns="http://www.w3.org/2000/svg" width="20.867" height="25.496" viewBox="0 0 20.867 25.496">
  <path id="icon-Application_Development" data-name="icon-Application Development" d="M10.26,13.72l1.248,1.031q.217.217.108.325l-1.139,2.007a.529.529,0,0,1-.38.108l-1.465-.6a4.9,4.9,0,0,1-1.031.6L7.33,18.656q-.217.271-.325.271H4.672a.262.262,0,0,1-.19-.081.15.15,0,0,1-.027-.19l-.217-1.465a4.227,4.227,0,0,1-1.085-.6l-1.573.488q-.163.108-.38-.163L.061,14.968a.963.963,0,0,1,.108-.434l1.248-.922V12.418L.17,11.5q-.217-.217-.108-.325L1.2,9.163a.529.529,0,0,1,.38-.108l1.465.6a4.227,4.227,0,0,1,1.085-.6L4.347,7.59q.217-.271.325-.271H7q.325,0,.325.271L7.6,9.055a4.9,4.9,0,0,1,1.031.6L10.1,9.163q.163-.108.38.163l1.139,1.953a.442.442,0,0,1-.108.325l-1.248.922V13.72ZM5.839,15.456a2.218,2.218,0,0,0,1.627-.678,2.358,2.358,0,0,0,0-3.309,2.216,2.216,0,0,0-1.627-.678,2.223,2.223,0,0,0-1.627.678,2.358,2.358,0,0,0,0,3.31,2.222,2.222,0,0,0,1.627.678ZM18.56.375a2.252,2.252,0,0,1,1.655.678,2.248,2.248,0,0,1,.678,1.654V23.539a2.315,2.315,0,0,1-2.333,2.333H7a2.315,2.315,0,0,1-2.333-2.333V20.067H7V22.4H18.56V3.847H7V6.179H4.672V2.708a2.252,2.252,0,0,1,.678-1.655A2.248,2.248,0,0,1,7,.375H18.56Z" transform="translate(-0.025 -0.375)" fill="#2a2c2e"/>
</svg>
