<svg xmlns="http://www.w3.org/2000/svg" width="18.515" height="26.898" viewBox="0 0 18.515 26.898">
  <path id="icon-Managed_Hosting" data-name="icon-Managed Hosting" d="M12.828,10.518a1.1,1.1,0,0,1,.837.356,1.13,1.13,0,0,1,.334.794V25.693a1.2,1.2,0,0,1-.334.849,1.1,1.1,0,0,1-.837.356H5.688a1.1,1.1,0,0,1-.837-.356,1.194,1.194,0,0,1-.334-.849V11.669a1.132,1.132,0,0,1,.334-.794,1.1,1.1,0,0,1,.837-.356h7.138ZM9.258,17.53a2.338,2.338,0,0,0,1.7-.685,2.285,2.285,0,0,0,0-3.286,2.338,2.338,0,0,0-1.7-.685,2.329,2.329,0,0,0-1.7.685,2.285,2.285,0,0,0,0,3.286,2.341,2.341,0,0,0,1.7.686ZM3.346,7.067A8.132,8.132,0,0,1,9.258,4.656,8.132,8.132,0,0,1,15.17,7.067L13.442,8.71a5.75,5.75,0,0,0-4.183-1.7A5.938,5.938,0,0,0,5.02,8.71ZM9.258,0a12.615,12.615,0,0,1,9.258,3.78L16.842,5.423A10.422,10.422,0,0,0,9.258,2.355,10.542,10.542,0,0,0,1.673,5.423L0,3.78A12.736,12.736,0,0,1,9.258,0Z" fill="#2a2c2e"/>
</svg>
