<svg xmlns="http://www.w3.org/2000/svg" width="40" height="40" viewBox="0 0 40 40">
  <g id="Icon-List_view-_Inactive" data-name="Icon-List view- Inactive" transform="translate(-1799.135 -175)">
    <path id="Icon-List_view-_Inactive-2" data-name="Icon-List view- Inactive" d="M6.13,27.9h-4.9A1.226,1.226,0,0,0,0,29.122v4.9a1.226,1.226,0,0,0,1.226,1.226h4.9a1.226,1.226,0,0,0,1.226-1.226v-4.9A1.226,1.226,0,0,0,6.13,27.9Zm0-24.521h-4.9A1.226,1.226,0,0,0,0,4.6v4.9a1.226,1.226,0,0,0,1.226,1.226h4.9A1.226,1.226,0,0,0,7.356,9.505V4.6A1.226,1.226,0,0,0,6.13,3.375Zm0,12.261h-4.9A1.226,1.226,0,0,0,0,16.862v4.9a1.226,1.226,0,0,0,1.226,1.226h4.9a1.226,1.226,0,0,0,1.226-1.226v-4.9A1.226,1.226,0,0,0,6.13,15.636ZM38.008,29.122H13.487a1.226,1.226,0,0,0-1.226,1.226V32.8a1.226,1.226,0,0,0,1.226,1.226H38.008A1.226,1.226,0,0,0,39.234,32.8V30.348A1.226,1.226,0,0,0,38.008,29.122Zm0-24.521H13.487a1.226,1.226,0,0,0-1.226,1.226V8.279a1.226,1.226,0,0,0,1.226,1.226H38.008a1.226,1.226,0,0,0,1.226-1.226V5.827A1.226,1.226,0,0,0,38.008,4.6Zm0,12.261H13.487a1.226,1.226,0,0,0-1.226,1.226V20.54a1.226,1.226,0,0,0,1.226,1.226H38.008a1.226,1.226,0,0,0,1.226-1.226V18.088A1.226,1.226,0,0,0,38.008,16.862Z" transform="translate(1799.135 175.625)" fill="#71757b"/>
    <rect id="Rectangle_140128" data-name="Rectangle 140128" width="40" height="40" transform="translate(1799.135 175)" fill="none"/>
  </g>
</svg>
