<svg xmlns="http://www.w3.org/2000/svg" width="174" height="53.14" viewBox="0 0 174 53.14"><g transform="translate(-92 -974)"><text transform="translate(177 1013.5)" fill="#4b286d" font-size="28" font-family="HelveticaNeueLTStd-Bd, Helvetica Neue LT Std"><tspan x="0" y="0">Willow</tspan></text><g transform="translate(-37.983 23.5)"><path d="M30.253,39.245c.545-1.954,1.2-3.884,1.611-5.866a41.5,41.5,0,0,0,.928-11.787,16.525,16.525,0,0,0-.825-3.829c-.776-2.328-1.837-4.568-2.521-6.92A8.305,8.305,0,0,1,34.587.525,8.791,8.791,0,0,1,45.8,5.44Q52.876,23.355,59.878,41.3a8.476,8.476,0,0,1-4.6,11.172,8.684,8.684,0,0,1-11.6-5.025c-1.844-4.681-3.715-9.352-5.577-14.026-.091-.228-.209-.444-.314-.663-.668,2.515-1.245,5.009-2,7.449a23.256,23.256,0,0,1-4.372,8.349c-2.31,2.716-5.1,4.574-8.824,4.571a8.393,8.393,0,0,1-7.91-5.412c-2.19-5.52-4.343-11.054-6.512-16.581Q4.442,21.615.707,12.1A8.9,8.9,0,0,1,2.575,2.272,8.861,8.861,0,0,1,16.768,5.608c2.812,7.034,5.532,14.1,8.294,21.159q2.429,6.205,4.862,12.409l.329.069" transform="translate(129.983 950.5)" fill="#482080"/><path d="M329.036,17.554a8.308,8.308,0,0,1-5.173-1.746A8.4,8.4,0,0,1,321,7.113,7.473,7.473,0,0,1,326.789.856C331.935-.393,336.5,2.4,338.083,7.782c1.49,5.071.475,9.843-1.931,14.4a17.008,17.008,0,0,1-6.077,6.905,14.879,14.879,0,0,1-3.734,1.386,1.418,1.418,0,0,1-1.751-.843,1.312,1.312,0,0,1,.706-1.7c3.513-2.1,4.112-5.446,3.905-9.132-.021-.378-.1-.753-.164-1.238" transform="translate(-134.28 950.038)" fill="#45a735"/></g></g></svg>