<svg xmlns="http://www.w3.org/2000/svg" width="90" height="90" viewBox="0 0 90 90">
  <g id="TELUS_2020_Int_EN_Vert_Digital_RGB" transform="translate(-53 -1)">
    <g id="TELUS_2020_Int_EN_Vert_Digital_RGB-2" data-name="TELUS_2020_Int_EN_Vert_Digital_RGB" transform="translate(40.93 -1.076)">
      <g id="TELUS" transform="translate(13.07 26.076)">
        <g id="Group_1265" data-name="Group 1265">
          <g id="Group_1264" data-name="Group 1264">
            <g id="Group_1263" data-name="Group 1263">
              <g id="Group_1262" data-name="Group 1262">
                <path id="Path_83188" data-name="Path 83188" d="M120.487,26.9,82.06,34.553v2.679l.125-.036c25.389-6.167,38.3-9.878,38.409-9.9a.213.213,0,0,0,.178-.24.23.23,0,0,0-.285-.151" transform="translate(-32.234 -26.166)" fill="#fff"/>
                <path id="Path_83189" data-name="Path 83189" d="M82.072,28.954c.6-.383.765-.142.587.285-.276.685-1.575,4.85-11.257,12.788a55.736,55.736,0,0,1-7.956,5.384C69.4,39.072,78.095,31.535,82.072,28.954m1.006-2.874c-1.869.107-5.331,2.874-7.226,4.521-7.564,6.541-13.18,12.557-17.273,18.848A208.9,208.9,0,0,1,28.4,62.37l-.258.089L26.07,68.048l1.184-.463A288.742,288.742,0,0,0,55.953,54.6a12.268,12.268,0,0,0-.881,4.3,7.241,7.241,0,0,0,.489,2.705,6.417,6.417,0,0,0,3.72,3.6c2.661,1.059,6.283,1.086,10.421-.169,10.563-3.2,23.1-13.037,25.834-15l.1-.071a.2.2,0,1,0-.214-.329h0l-.133.08C92.36,51.469,78.13,59.914,68.875,62.4c-4.708,1.264-8.3.57-9.656-1.326a4.03,4.03,0,0,1-.694-2.421c0-1.86.872-4.236,2.572-6.87,1.557-.89,3.008-1.753,4.316-2.572C74.437,44.136,84.84,34.276,85.276,28.26v-.133a2.085,2.085,0,0,0-.623-1.451A2.007,2.007,0,0,0,83.078,26.08Z" transform="translate(-26.07 -26.076)" fill="#fff"/>
              </g>
              <path id="Path_83190" data-name="Path 83190" d="M76.725,35.526,36.3,44.22l-1.566,4.2L76.85,38.178l.062-.018V35.49l-.187.036" transform="translate(-27.023 -27.112)" fill="#fff"/>
            </g>
          </g>
        </g>
      </g>
    </g>
    <rect id="Rectangle_140130" data-name="Rectangle 140130" width="90" height="90" transform="translate(53 1)" fill="none"/>
  </g>
</svg>
