<svg width="85" height="87" viewBox="0 0 85 87" fill="none" xmlns="http://www.w3.org/2000/svg">
<path d="M81.9638 20.6239L61.9717 2.71922C59.9733 1.05286 57.3712 0.08745 54.6425 0L21.2488 0C18.8346 0.00281489 16.5202 0.862958 14.8131 2.39181C13.1061 3.92065 12.1456 5.9934 12.1425 8.15552V35.3434C12.1425 36.0646 12.4624 36.7562 13.0318 37.2662C13.6012 37.7761 14.3735 38.0626 15.1787 38.0626C15.984 38.0626 16.7563 37.7761 17.3257 37.2662C17.8951 36.7562 18.2149 36.0646 18.2149 35.3434V8.15552C18.2162 7.43525 18.5362 6.7448 19.1049 6.23549C19.6736 5.72618 20.4446 5.43956 21.2488 5.43843H48.5701C50.1806 5.43843 51.7251 6.01141 52.8639 7.03131C54.0027 8.05121 54.6425 9.4345 54.6425 10.8769V21.0643C54.6481 22.6852 55.3696 24.2382 56.6493 25.3843C57.929 26.5304 59.663 27.1765 61.4728 27.1815H72.8575C74.468 27.1815 76.0125 27.7545 77.1513 28.7744C78.2901 29.7943 78.9299 31.1776 78.9299 32.6199V78.8445C78.9299 79.5657 78.61 80.2573 78.0406 80.7673C77.4712 81.2772 76.6989 81.5637 75.8937 81.5637H21.2512C20.4461 81.5631 19.6742 81.2765 19.1049 80.7666C18.5357 80.2568 18.2156 79.5655 18.2149 78.8445C18.2149 78.1233 17.8951 77.4317 17.3257 76.9217C16.7563 76.4118 15.984 76.1253 15.1787 76.1253C14.3735 76.1253 13.6012 76.4118 13.0318 76.9217C12.4624 77.4317 12.1425 78.1233 12.1425 78.8445C12.1456 81.0066 13.1061 83.0793 14.8131 84.6082C16.5202 86.137 18.8346 86.9972 21.2488 87H75.8913C78.3055 86.9972 80.6199 86.137 82.327 84.6082C84.034 83.0793 84.9945 81.0066 84.9976 78.8445V27.1879C84.8996 24.7446 83.8226 22.4145 81.9638 20.6239V20.6239Z" fill="#2B8000"/>
<line x1="15.4157" y1="33.7576" x2="15.4157" y2="79.6061" stroke="#2B8000" stroke-width="6" stroke-linecap="round"/>
</svg>
